<?xml version="1.0" encoding="UTF-8" standalone="no"?>
<!DOCTYPE svg PUBLIC "-//W3C//DTD SVG 1.1//EN" "http://www.w3.org/Graphics/SVG/1.1/DTD/svg11.dtd">
<svg width="100%" height="100%" viewBox="0 0 512 512" version="1.1" xmlns="http://www.w3.org/2000/svg" xmlns:xlink="http://www.w3.org/1999/xlink" xml:space="preserve" xmlns:serif="http://www.serif.com/" style="fill-rule:evenodd;clip-rule:evenodd;stroke-linejoin:round;stroke-miterlimit:1.41421;">
    <g transform="matrix(6.12323e-17,-1,1,6.12323e-17,0,512)">
        <path d="M512,51.2C512,22.942 489.058,0 460.8,0L51.2,0C22.942,0 0,22.942 0,51.2L0,460.8C0,489.058 22.942,512 51.2,512L460.8,512C489.058,512 512,489.058 512,460.8L512,51.2Z" style="fill:url(#_Linear1);"/>
    </g>
    <path d="M461.906,231.291C461.906,131.286 369.643,50.094 256,50.094C142.357,50.094 50.094,131.286 50.094,231.291C50.094,281.752 74.005,329.926 116.071,364.218L111.866,461.906L203.365,406.468C220.541,410.465 238.233,412.489 256,412.489C369.643,412.489 461.906,331.297 461.906,231.291ZM256,212.352C284.088,212.352 306.892,235.156 306.892,263.244C306.892,291.332 284.088,314.137 256,314.137C227.912,314.137 205.108,291.332 205.108,263.244C205.108,235.156 227.912,212.352 256,212.352ZM337.183,151.77C353.901,151.77 367.474,165.343 367.474,182.061C367.474,198.779 353.901,212.352 337.183,212.352C320.465,212.352 306.892,198.779 306.892,182.061C306.892,165.343 320.465,151.77 337.183,151.77ZM174.817,151.77C191.535,151.77 205.108,165.343 205.108,182.061C205.108,198.779 191.535,212.352 174.817,212.352C158.099,212.352 144.526,198.779 144.526,182.061C144.526,165.343 158.099,151.77 174.817,151.77Z" style="fill:white;"/>
    <defs>
        <linearGradient id="_Linear1" x1="0" y1="0" x2="1" y2="0" gradientUnits="userSpaceOnUse" gradientTransform="matrix(512,0,0,512,0,256)"><stop offset="0" style="stop-color:rgb(18,92,158);stop-opacity:1"/><stop offset="1" style="stop-color:rgb(30,136,229);stop-opacity:1"/></linearGradient>
    </defs>
</svg>
