<?xml version="1.0" standalone="no"?>
<!DOCTYPE svg PUBLIC "-//W3C//DTD SVG 20010904//EN"
 "http://www.w3.org/TR/2001/REC-SVG-20010904/DTD/svg10.dtd">
<svg version="1.0" xmlns="http://www.w3.org/2000/svg"
 width="700.000000pt" height="700.000000pt" viewBox="0 0 700.000000 700.000000"
 preserveAspectRatio="xMidYMid meet">
<metadata>
Created by potrace 1.11, written by Peter Selinger 2001-2013
</metadata>
<g transform="translate(0.000000,700.000000) scale(0.100000,-0.100000)"
fill="#000000" stroke="none">
<path d="M609 6996 c-2 -2 -17 -6 -34 -9 -280 -44 -521 -289 -565 -573 -7 -48
-10 -957 -8 -2959 l3 -2890 23 -67 c77 -229 259 -406 481 -471 l76 -22 2900 0
c1595 0 2919 3 2942 7 257 44 488 263 552 525 19 76 20 148 20 2968 0 2851 -1
2891 -20 2964 -73 272 -285 469 -559 520 -52 10 -5801 17 -5811 7z"/>
</g>
</svg>
