<?xml version="1.0" encoding="UTF-8" standalone="no"?>
<!DOCTYPE svg PUBLIC "-//W3C//DTD SVG 1.1//EN" "http://www.w3.org/Graphics/SVG/1.1/DTD/svg11.dtd">
<svg width="100%" height="100%" viewBox="0 0 512 512" version="1.1" xmlns="http://www.w3.org/2000/svg" xmlns:xlink="http://www.w3.org/1999/xlink" xml:space="preserve" xmlns:serif="http://www.serif.com/" style="fill-rule:evenodd;clip-rule:evenodd;stroke-linejoin:round;stroke-miterlimit:1.41421;">
    <g transform="matrix(0.956505,0,0,0.956505,11.1348,11.1348)">
        <path d="M512,138.24C512,61.943 450.057,0 373.76,0L0,0L0,373.76C0,450.057 61.943,512 138.24,512L373.76,512C450.057,512 512,450.057 512,373.76L512,138.24Z" style="fill:rgb(235,235,235);fill-opacity:0;"/>
        <path d="M374.207,0.001L374.653,0.003L375.1,0.006L375.546,0.011L375.991,0.018L376.436,0.025L376.881,0.035L377.326,0.045L377.77,0.057L378.214,0.071L378.657,0.085L379.1,0.101L379.543,0.119L379.986,0.138L380.428,0.158L380.869,0.18L381.311,0.203L381.752,0.228L382.192,0.253L382.632,0.281L383.072,0.309L383.512,0.339L383.951,0.371L384.39,0.403L384.828,0.438L385.266,0.473L385.704,0.51L386.141,0.548L386.578,0.588L387.014,0.628L387.45,0.671L387.886,0.714L388.321,0.759L388.756,0.806L389.19,0.853L389.624,0.902L390.058,0.953L390.491,1.004L390.924,1.057L391.357,1.112L391.789,1.167L392.22,1.224L392.651,1.283L393.082,1.342L393.512,1.403L393.942,1.465L394.372,1.529L394.801,1.594L395.229,1.66L395.658,1.728L396.085,1.797L396.513,1.867L396.94,1.938L397.366,2.011L397.792,2.085L398.217,2.161L398.643,2.238L399.067,2.316L399.491,2.395L399.915,2.475L400.338,2.557L400.761,2.64L401.184,2.725L401.606,2.811L402.027,2.898L402.448,2.986L402.868,3.076L403.288,3.166L403.708,3.259L404.127,3.352L404.546,3.447L404.964,3.543L405.381,3.64L405.799,3.738L406.215,3.838L406.631,3.939L407.047,4.041L407.462,4.145L407.877,4.249L408.291,4.355L408.705,4.463L409.118,4.571L409.531,4.681L409.943,4.792L410.355,4.904L410.766,5.017L411.177,5.132L411.587,5.248L411.996,5.365L412.406,5.483L412.814,5.603L413.222,5.724L413.63,5.846L414.037,5.969L414.443,6.094L414.849,6.219L415.255,6.346L415.66,6.474L416.064,6.604L416.468,6.734L416.871,6.866L417.274,6.999L417.676,7.133L418.078,7.268L418.479,7.405L418.879,7.543L419.279,7.682L419.679,7.822L420.078,7.963L420.476,8.106L420.874,8.249L421.271,8.394L421.668,8.54L422.064,8.687L422.459,8.836L422.854,8.985L423.249,9.136L423.642,9.288L424.035,9.441L424.428,9.595L424.82,9.751L425.212,9.907L425.602,10.065L425.993,10.224L426.382,10.384L426.771,10.545L427.16,10.707L427.548,10.871L427.935,11.035L428.322,11.201L428.708,11.368L429.093,11.536L429.478,11.705L429.862,11.876L430.246,12.047L430.629,12.22L431.011,12.393L431.393,12.568L431.774,12.744L432.155,12.921L432.535,13.099L432.914,13.279L433.292,13.459L433.67,13.641L434.048,13.823L434.425,14.007L434.801,14.192L435.176,14.378L435.551,14.565L435.925,14.753L436.299,14.943L436.671,15.133L437.044,15.324L437.415,15.517L437.786,15.711L438.156,15.905L438.526,16.101L438.895,16.298L439.263,16.496L439.631,16.695L439.998,16.895L440.364,17.096L440.729,17.299L441.094,17.502L441.459,17.707L441.822,17.912L442.185,18.119L442.547,18.326L442.909,18.535L443.27,18.745L443.63,18.956L443.989,19.167L444.348,19.38L444.706,19.594L445.063,19.809L445.42,20.025L445.776,20.242L446.131,20.461L446.485,20.68L446.839,20.9L447.192,21.121L447.545,21.344L447.896,21.567L448.247,21.791L448.598,22.017L448.947,22.243L449.296,22.47L449.644,22.699L449.991,22.928L450.338,23.159L450.684,23.39L451.029,23.623L451.373,23.856L451.717,24.091L452.06,24.326L452.402,24.563L452.743,24.8L453.084,25.039L453.424,25.278L453.763,25.519L454.102,25.76L454.439,26.003L454.776,26.246L455.112,26.491L455.448,26.736L455.782,26.983L456.116,27.23L456.449,27.478L456.782,27.728L457.113,27.978L457.444,28.229L457.774,28.482L458.103,28.735L458.431,28.989L458.759,29.244L459.086,29.5L459.412,29.758L459.737,30.016L460.062,30.275L460.385,30.535L460.708,30.795L461.03,31.057L461.352,31.32L461.672,31.584L461.992,31.848L462.311,32.114L462.629,32.381L462.946,32.648L463.263,32.917L463.578,33.186L463.893,33.456L464.207,33.727L464.52,34L464.833,34.273L465.144,34.547L465.455,34.821L465.765,35.097L466.074,35.374L466.382,35.652L466.689,35.93L466.996,36.21L467.301,36.49L467.606,36.771L467.91,37.053L468.213,37.336L468.516,37.62L468.817,37.905L469.118,38.191L469.417,38.478L469.716,38.765L470.014,39.053L470.311,39.343L470.608,39.633L470.903,39.924L471.198,40.216L471.491,40.509L471.784,40.802L472.076,41.097L472.367,41.392L472.657,41.689L472.947,41.986L473.235,42.284L473.522,42.583L473.809,42.882L474.095,43.183L474.38,43.484L474.664,43.787L474.947,44.09L475.229,44.394L475.51,44.699L475.79,45.004L476.07,45.311L476.348,45.618L476.626,45.926L476.903,46.235L477.179,46.545L477.453,46.856L477.727,47.167L478,47.48L478.273,47.793L478.544,48.107L478.814,48.422L479.083,48.737L479.352,49.054L479.619,49.371L479.886,49.689L480.152,50.008L480.416,50.328L480.68,50.648L480.943,50.97L481.205,51.292L481.465,51.615L481.725,51.938L481.984,52.263L482.242,52.588L482.5,52.914L482.756,53.241L483.011,53.569L483.265,53.897L483.518,54.226L483.771,54.556L484.022,54.887L484.272,55.218L484.522,55.551L484.77,55.884L485.017,56.218L485.264,56.552L485.509,56.888L485.754,57.224L485.997,57.561L486.24,57.898L486.481,58.237L486.722,58.576L486.961,58.916L487.2,59.257L487.437,59.598L487.674,59.94L487.909,60.283L488.144,60.627L488.377,60.971L488.61,61.316L488.841,61.662L489.072,62.009L489.301,62.356L489.53,62.704L489.757,63.053L489.983,63.402L490.209,63.753L490.433,64.104L490.656,64.455L490.879,64.808L491.1,65.161L491.32,65.515L491.539,65.869L491.758,66.224L491.975,66.58L492.191,66.937L492.406,67.294L492.62,67.652L492.833,68.011L493.044,68.37L493.255,68.73L493.465,69.091L493.674,69.453L493.881,69.815L494.088,70.178L494.293,70.541L494.498,70.906L494.701,71.271L494.904,71.636L495.105,72.002L495.305,72.369L495.504,72.737L495.702,73.105L495.899,73.474L496.095,73.844L496.289,74.214L496.483,74.585L496.676,74.956L496.867,75.329L497.057,75.701L497.247,76.075L497.435,76.449L497.622,76.824L497.808,77.199L497.993,77.575L498.177,77.952L498.359,78.33L498.541,78.708L498.721,79.086L498.901,79.465L499.079,79.845L499.256,80.226L499.432,80.607L499.607,80.989L499.78,81.371L499.953,81.754L500.124,82.138L500.295,82.522L500.464,82.907L500.632,83.292L500.799,83.678L500.965,84.065L501.129,84.452L501.293,84.84L501.455,85.229L501.616,85.618L501.776,86.007L501.935,86.398L502.093,86.788L502.249,87.18L502.405,87.572L502.559,87.965L502.712,88.358L502.864,88.751L503.015,89.146L503.164,89.541L503.313,89.936L503.46,90.332L503.606,90.729L503.751,91.126L503.894,91.524L504.037,91.922L504.178,92.321L504.318,92.721L504.457,93.121L504.595,93.521L504.732,93.922L504.867,94.324L505.001,94.726L505.134,95.129L505.266,95.532L505.396,95.936L505.526,96.34L505.654,96.745L505.781,97.151L505.906,97.557L506.031,97.963L506.154,98.37L506.276,98.778L506.397,99.186L506.517,99.594L506.635,100.004L506.752,100.413L506.868,100.823L506.983,101.234L507.096,101.645L507.208,102.057L507.319,102.469L507.429,102.882L507.537,103.295L507.645,103.709L507.751,104.123L507.855,104.538L507.959,104.953L508.061,105.369L508.162,105.785L508.262,106.201L508.36,106.619L508.457,107.036L508.553,107.454L508.648,107.873L508.741,108.292L508.834,108.712L508.924,109.132L509.014,109.552L509.102,109.973L509.189,110.394L509.275,110.816L509.36,111.239L509.443,111.662L509.525,112.085L509.605,112.509L509.684,112.933L509.762,113.357L509.839,113.783L509.915,114.208L509.989,114.634L510.062,115.06L510.133,115.487L510.203,115.915L510.272,116.342L510.34,116.771L510.406,117.199L510.471,117.628L510.535,118.058L510.597,118.488L510.658,118.918L510.717,119.349L510.776,119.78L510.833,120.211L510.888,120.643L510.943,121.076L510.996,121.509L511.047,121.942L511.098,122.376L511.147,122.81L511.194,123.244L511.241,123.679L511.286,124.114L511.329,124.55L511.372,124.986L511.412,125.422L511.452,125.859L511.49,126.296L511.527,126.734L511.562,127.172L511.597,127.61L511.629,128.049L511.661,128.488L511.691,128.928L511.719,129.368L511.747,129.808L511.772,130.248L511.797,130.689L511.82,131.131L511.842,131.572L511.862,132.014L511.881,132.457L511.899,132.9L511.915,133.343L511.929,133.786L511.943,134.23L511.955,134.674L511.965,135.119L511.975,135.564L511.982,136.009L511.989,136.454L511.994,136.9L511.997,137.347L511.999,137.793L512,138.24L512,373.76L511.999,374.207L511.997,374.653L511.994,375.1L511.989,375.546L511.982,375.991L511.975,376.436L511.965,376.881L511.955,377.326L511.943,377.77L511.929,378.214L511.915,378.657L511.899,379.1L511.881,379.543L511.862,379.986L511.842,380.428L511.82,380.869L511.797,381.311L511.772,381.752L511.747,382.192L511.719,382.632L511.691,383.072L511.661,383.512L511.629,383.951L511.597,384.39L511.562,384.828L511.527,385.266L511.49,385.704L511.452,386.141L511.412,386.578L511.372,387.014L511.329,387.45L511.286,387.886L511.241,388.321L511.194,388.756L511.147,389.19L511.098,389.624L511.047,390.058L510.996,390.491L510.943,390.924L510.888,391.357L510.833,391.789L510.776,392.22L510.717,392.651L510.658,393.082L510.597,393.512L510.535,393.942L510.471,394.372L510.406,394.801L510.34,395.229L510.272,395.658L510.203,396.085L510.133,396.513L510.062,396.94L509.989,397.366L509.915,397.792L509.839,398.217L509.762,398.643L509.684,399.067L509.605,399.491L509.525,399.915L509.443,400.338L509.36,400.761L509.275,401.184L509.189,401.606L509.102,402.027L509.014,402.448L508.924,402.868L508.834,403.288L508.741,403.708L508.648,404.127L508.553,404.546L508.457,404.964L508.36,405.381L508.262,405.799L508.162,406.215L508.061,406.631L507.959,407.047L507.855,407.462L507.751,407.877L507.645,408.291L507.537,408.705L507.429,409.118L507.319,409.531L507.208,409.943L507.096,410.355L506.983,410.766L506.868,411.177L506.752,411.587L506.635,411.996L506.517,412.406L506.397,412.814L506.276,413.222L506.154,413.63L506.031,414.037L505.906,414.443L505.781,414.849L505.654,415.255L505.526,415.66L505.396,416.064L505.266,416.468L505.134,416.871L505.001,417.274L504.867,417.676L504.732,418.078L504.595,418.479L504.457,418.879L504.318,419.279L504.178,419.679L504.037,420.078L503.894,420.476L503.751,420.874L503.606,421.271L503.46,421.668L503.313,422.064L503.164,422.459L503.015,422.854L502.864,423.249L502.712,423.642L502.559,424.035L502.405,424.428L502.249,424.82L502.093,425.212L501.935,425.602L501.776,425.993L501.616,426.382L501.455,426.771L501.293,427.16L501.129,427.548L500.965,427.935L500.799,428.322L500.632,428.708L500.464,429.093L500.295,429.478L500.124,429.862L499.953,430.246L499.78,430.629L499.607,431.011L499.432,431.393L499.256,431.774L499.079,432.155L498.901,432.535L498.721,432.914L498.541,433.292L498.359,433.67L498.177,434.048L497.993,434.425L497.808,434.801L497.622,435.176L497.435,435.551L497.247,435.925L497.057,436.299L496.867,436.671L496.676,437.044L496.483,437.415L496.289,437.786L496.095,438.156L495.899,438.526L495.702,438.895L495.504,439.263L495.305,439.631L495.105,439.998L494.904,440.364L494.701,440.729L494.498,441.094L494.293,441.459L494.088,441.822L493.881,442.185L493.674,442.547L493.465,442.909L493.255,443.27L493.044,443.63L492.833,443.989L492.62,444.348L492.406,444.706L492.191,445.063L491.975,445.42L491.758,445.776L491.539,446.131L491.32,446.485L491.1,446.839L490.879,447.192L490.656,447.545L490.433,447.896L490.209,448.247L489.983,448.598L489.757,448.947L489.53,449.296L489.301,449.644L489.072,449.991L488.841,450.338L488.61,450.684L488.377,451.029L488.144,451.373L487.909,451.717L487.674,452.06L487.437,452.402L487.2,452.743L486.961,453.084L486.722,453.424L486.481,453.763L486.24,454.102L485.997,454.439L485.754,454.776L485.509,455.112L485.264,455.448L485.017,455.782L484.77,456.116L484.522,456.449L484.272,456.782L484.022,457.113L483.771,457.444L483.518,457.774L483.265,458.103L483.011,458.431L482.756,458.759L482.5,459.086L482.242,459.412L481.984,459.737L481.725,460.062L481.465,460.385L481.205,460.708L480.943,461.03L480.68,461.352L480.416,461.672L480.152,461.992L479.886,462.311L479.619,462.629L479.352,462.946L479.083,463.263L478.814,463.578L478.544,463.893L478.273,464.207L478,464.52L477.727,464.833L477.453,465.144L477.179,465.455L476.903,465.765L476.626,466.074L476.348,466.382L476.07,466.689L475.79,466.996L475.51,467.301L475.229,467.606L474.947,467.91L474.664,468.213L474.38,468.516L474.095,468.817L473.809,469.118L473.522,469.417L473.235,469.716L472.947,470.014L472.657,470.311L472.367,470.608L472.076,470.903L471.784,471.198L471.491,471.491L471.198,471.784L470.903,472.076L470.608,472.367L470.311,472.657L470.014,472.947L469.716,473.235L469.417,473.522L469.118,473.809L468.817,474.095L468.516,474.38L468.213,474.664L467.91,474.947L467.606,475.229L467.301,475.51L466.996,475.79L466.689,476.07L466.382,476.348L466.074,476.626L465.765,476.903L465.455,477.179L465.144,477.453L464.833,477.727L464.52,478L464.207,478.273L463.893,478.544L463.578,478.814L463.263,479.083L462.946,479.352L462.629,479.619L462.311,479.886L461.992,480.152L461.672,480.416L461.352,480.68L461.03,480.943L460.708,481.205L460.385,481.465L460.062,481.725L459.737,481.984L459.412,482.242L459.086,482.5L458.759,482.756L458.431,483.011L458.103,483.265L457.774,483.518L457.444,483.771L457.113,484.022L456.782,484.272L456.449,484.522L456.116,484.77L455.782,485.017L455.448,485.264L455.112,485.509L454.776,485.754L454.439,485.997L454.102,486.24L453.763,486.481L453.424,486.722L453.084,486.961L452.743,487.2L452.402,487.437L452.06,487.674L451.717,487.909L451.373,488.144L451.029,488.377L450.684,488.61L450.338,488.841L449.991,489.072L449.644,489.301L449.296,489.53L448.947,489.757L448.598,489.983L448.247,490.209L447.896,490.433L447.545,490.656L447.192,490.879L446.839,491.1L446.485,491.32L446.131,491.539L445.776,491.758L445.42,491.975L445.063,492.191L444.706,492.406L444.348,492.62L443.989,492.833L443.63,493.044L443.27,493.255L442.909,493.465L442.547,493.674L442.185,493.881L441.822,494.088L441.459,494.293L441.094,494.498L440.729,494.701L440.364,494.904L439.998,495.105L439.631,495.305L439.263,495.504L438.895,495.702L438.526,495.899L438.156,496.095L437.786,496.289L437.415,496.483L437.044,496.676L436.671,496.867L436.299,497.057L435.925,497.247L435.551,497.435L435.176,497.622L434.801,497.808L434.425,497.993L434.048,498.177L433.67,498.359L433.292,498.541L432.914,498.721L432.535,498.901L432.155,499.079L431.774,499.256L431.393,499.432L431.011,499.607L430.629,499.78L430.246,499.953L429.862,500.124L429.478,500.295L429.093,500.464L428.708,500.632L428.322,500.799L427.935,500.965L427.548,501.129L427.16,501.293L426.771,501.455L426.382,501.616L425.993,501.776L425.602,501.935L425.212,502.093L424.82,502.249L424.428,502.405L424.035,502.559L423.642,502.712L423.249,502.864L422.854,503.015L422.459,503.164L422.064,503.313L421.668,503.46L421.271,503.606L420.874,503.751L420.476,503.894L420.078,504.037L419.679,504.178L419.279,504.318L418.879,504.457L418.479,504.595L418.078,504.732L417.676,504.867L417.274,505.001L416.871,505.134L416.468,505.266L416.064,505.396L415.66,505.526L415.255,505.654L414.849,505.781L414.443,505.906L414.037,506.031L413.63,506.154L413.222,506.276L412.814,506.397L412.406,506.517L411.996,506.635L411.587,506.752L411.177,506.868L410.766,506.983L410.355,507.096L409.943,507.208L409.531,507.319L409.118,507.429L408.705,507.537L408.291,507.645L407.877,507.751L407.462,507.855L407.047,507.959L406.631,508.061L406.215,508.162L405.799,508.262L405.381,508.36L404.964,508.457L404.546,508.553L404.127,508.648L403.708,508.741L403.288,508.834L402.868,508.924L402.448,509.014L402.027,509.102L401.606,509.189L401.184,509.275L400.761,509.36L400.338,509.443L399.915,509.525L399.491,509.605L399.067,509.684L398.643,509.762L398.217,509.839L397.792,509.915L397.366,509.989L396.94,510.062L396.513,510.133L396.085,510.203L395.658,510.272L395.229,510.34L394.801,510.406L394.372,510.471L393.942,510.535L393.512,510.597L393.082,510.658L392.651,510.717L392.22,510.776L391.789,510.833L391.357,510.888L390.924,510.943L390.491,510.996L390.058,511.047L389.624,511.098L389.19,511.147L388.756,511.194L388.321,511.241L387.886,511.286L387.45,511.329L387.014,511.372L386.578,511.412L386.141,511.452L385.704,511.49L385.266,511.527L384.828,511.562L384.39,511.597L383.951,511.629L383.512,511.661L383.072,511.691L382.632,511.719L382.192,511.747L381.752,511.772L381.311,511.797L380.869,511.82L380.428,511.842L379.986,511.862L379.543,511.881L379.1,511.899L378.657,511.915L378.214,511.929L377.77,511.943L377.326,511.955L376.881,511.965L376.436,511.975L375.991,511.982L375.546,511.989L375.1,511.994L374.653,511.997L374.207,511.999L373.76,512L138.24,512L137.793,511.999L137.347,511.997L136.9,511.994L136.454,511.989L136.009,511.982L135.564,511.975L135.119,511.965L134.674,511.955L134.23,511.943L133.786,511.929L133.343,511.915L132.9,511.899L132.457,511.881L132.014,511.862L131.572,511.842L131.131,511.82L130.689,511.797L130.248,511.772L129.808,511.747L129.368,511.719L128.928,511.691L128.488,511.661L128.049,511.629L127.61,511.597L127.172,511.562L126.734,511.527L126.296,511.49L125.859,511.452L125.422,511.412L124.986,511.372L124.55,511.329L124.114,511.286L123.679,511.241L123.244,511.194L122.81,511.147L122.376,511.098L121.942,511.047L121.509,510.996L121.076,510.943L120.643,510.888L120.211,510.833L119.78,510.776L119.349,510.717L118.918,510.658L118.488,510.597L118.058,510.535L117.628,510.471L117.199,510.406L116.771,510.34L116.342,510.272L115.915,510.203L115.487,510.133L115.06,510.062L114.634,509.989L114.208,509.915L113.783,509.839L113.357,509.762L112.933,509.684L112.509,509.605L112.085,509.525L111.662,509.443L111.239,509.36L110.816,509.275L110.394,509.189L109.973,509.102L109.552,509.014L109.132,508.924L108.712,508.834L108.292,508.741L107.873,508.648L107.454,508.553L107.036,508.457L106.619,508.36L106.201,508.262L105.785,508.162L105.369,508.061L104.953,507.959L104.538,507.855L104.123,507.751L103.709,507.645L103.295,507.537L102.882,507.429L102.469,507.319L102.057,507.208L101.645,507.096L101.234,506.983L100.823,506.868L100.413,506.752L100.004,506.635L99.594,506.517L99.186,506.397L98.778,506.276L98.37,506.154L97.963,506.031L97.557,505.906L97.151,505.781L96.745,505.654L96.34,505.526L95.936,505.396L95.532,505.266L95.129,505.134L94.726,505.001L94.324,504.867L93.922,504.732L93.521,504.595L93.121,504.457L92.721,504.318L92.321,504.178L91.922,504.037L91.524,503.894L91.126,503.751L90.729,503.606L90.332,503.46L89.936,503.313L89.541,503.164L89.146,503.015L88.751,502.864L88.358,502.712L87.965,502.559L87.572,502.405L87.18,502.249L86.788,502.093L86.398,501.935L86.007,501.776L85.618,501.616L85.229,501.455L84.84,501.293L84.452,501.129L84.065,500.965L83.678,500.799L83.292,500.632L82.907,500.464L82.522,500.295L82.138,500.124L81.754,499.953L81.371,499.78L80.989,499.607L80.607,499.432L80.226,499.256L79.845,499.079L79.465,498.901L79.086,498.721L78.708,498.541L78.33,498.359L77.952,498.177L77.575,497.993L77.199,497.808L76.824,497.622L76.449,497.435L76.075,497.247L75.701,497.057L75.329,496.867L74.956,496.676L74.585,496.483L74.214,496.289L73.844,496.095L73.474,495.899L73.105,495.702L72.737,495.504L72.369,495.305L72.002,495.105L71.636,494.904L71.271,494.701L70.906,494.498L70.541,494.293L70.178,494.088L69.815,493.881L69.453,493.674L69.091,493.465L68.73,493.255L68.37,493.044L68.011,492.833L67.652,492.62L67.294,492.406L66.937,492.191L66.58,491.975L66.224,491.758L65.869,491.539L65.515,491.32L65.161,491.1L64.808,490.879L64.455,490.656L64.104,490.433L63.753,490.209L63.402,489.983L63.053,489.757L62.704,489.53L62.356,489.301L62.009,489.072L61.662,488.841L61.316,488.61L60.971,488.377L60.627,488.144L60.283,487.909L59.94,487.674L59.598,487.437L59.257,487.2L58.916,486.961L58.576,486.722L58.237,486.481L57.898,486.24L57.561,485.997L57.224,485.754L56.888,485.509L56.552,485.264L56.218,485.017L55.884,484.77L55.551,484.522L55.218,484.272L54.887,484.022L54.556,483.771L54.226,483.518L53.897,483.265L53.569,483.011L53.241,482.756L52.914,482.5L52.588,482.242L52.263,481.984L51.938,481.725L51.615,481.465L51.292,481.205L50.97,480.943L50.648,480.68L50.328,480.416L50.008,480.152L49.689,479.886L49.371,479.619L49.054,479.352L48.737,479.083L48.422,478.814L48.107,478.544L47.793,478.273L47.48,478L47.167,477.727L46.856,477.453L46.545,477.179L46.235,476.903L45.926,476.626L45.618,476.348L45.311,476.07L45.004,475.79L44.699,475.51L44.394,475.229L44.09,474.947L43.787,474.664L43.484,474.38L43.183,474.095L42.882,473.809L42.583,473.522L42.284,473.235L41.986,472.947L41.689,472.657L41.392,472.367L41.097,472.076L40.802,471.784L40.509,471.491L40.216,471.198L39.924,470.903L39.633,470.608L39.343,470.311L39.053,470.014L38.765,469.716L38.478,469.417L38.191,469.118L37.905,468.817L37.62,468.516L37.336,468.213L37.053,467.91L36.771,467.606L36.49,467.301L36.21,466.996L35.93,466.689L35.652,466.382L35.374,466.074L35.097,465.765L34.821,465.455L34.547,465.144L34.273,464.833L34,464.52L33.727,464.207L33.456,463.893L33.186,463.578L32.917,463.263L32.648,462.946L32.381,462.629L32.114,462.311L31.848,461.992L31.584,461.672L31.32,461.352L31.057,461.03L30.795,460.708L30.535,460.385L30.275,460.062L30.016,459.737L29.758,459.412L29.5,459.086L29.244,458.759L28.989,458.431L28.735,458.103L28.482,457.774L28.229,457.444L27.978,457.113L27.728,456.782L27.478,456.449L27.23,456.116L26.983,455.782L26.736,455.448L26.491,455.112L26.246,454.776L26.003,454.439L25.76,454.102L25.519,453.763L25.278,453.424L25.039,453.084L24.8,452.743L24.563,452.402L24.326,452.06L24.091,451.717L23.856,451.373L23.623,451.029L23.39,450.684L23.159,450.338L22.928,449.991L22.699,449.644L22.47,449.296L22.243,448.947L22.017,448.598L21.791,448.247L21.567,447.896L21.344,447.545L21.121,447.192L20.9,446.839L20.68,446.485L20.461,446.131L20.242,445.776L20.025,445.42L19.809,445.063L19.594,444.706L19.38,444.348L19.167,443.989L18.956,443.63L18.745,443.27L18.535,442.909L18.326,442.547L18.119,442.185L17.912,441.822L17.707,441.459L17.502,441.094L17.299,440.729L17.096,440.364L16.895,439.998L16.695,439.631L16.496,439.263L16.298,438.895L16.101,438.526L15.905,438.156L15.711,437.786L15.517,437.415L15.324,437.044L15.133,436.671L14.943,436.299L14.753,435.925L14.565,435.551L14.378,435.176L14.192,434.801L14.007,434.425L13.823,434.048L13.641,433.67L13.459,433.292L13.279,432.914L13.099,432.535L12.921,432.155L12.744,431.774L12.568,431.393L12.393,431.011L12.22,430.629L12.047,430.246L11.876,429.862L11.705,429.478L11.536,429.093L11.368,428.708L11.201,428.322L11.035,427.935L10.871,427.548L10.707,427.16L10.545,426.771L10.384,426.382L10.224,425.993L10.065,425.602L9.907,425.212L9.751,424.82L9.595,424.428L9.441,424.035L9.288,423.642L9.136,423.249L8.985,422.854L8.836,422.459L8.687,422.064L8.54,421.668L8.394,421.271L8.249,420.874L8.106,420.476L7.963,420.078L7.822,419.679L7.682,419.279L7.543,418.879L7.405,418.479L7.268,418.078L7.133,417.676L6.999,417.274L6.866,416.871L6.734,416.468L6.604,416.064L6.474,415.66L6.346,415.255L6.219,414.849L6.094,414.443L5.969,414.037L5.846,413.63L5.724,413.222L5.603,412.814L5.483,412.406L5.365,411.996L5.248,411.587L5.132,411.177L5.017,410.766L4.904,410.355L4.792,409.943L4.681,409.531L4.571,409.118L4.463,408.705L4.355,408.291L4.249,407.877L4.145,407.462L4.041,407.047L3.939,406.631L3.838,406.215L3.738,405.799L3.64,405.381L3.543,404.964L3.447,404.546L3.352,404.127L3.259,403.708L3.166,403.288L3.076,402.868L2.986,402.448L2.898,402.027L2.811,401.606L2.725,401.184L2.64,400.761L2.557,400.338L2.475,399.915L2.395,399.491L2.316,399.067L2.238,398.643L2.161,398.217L2.085,397.792L2.011,397.366L1.938,396.94L1.867,396.513L1.797,396.085L1.728,395.658L1.66,395.229L1.594,394.801L1.529,394.372L1.465,393.942L1.403,393.512L1.342,393.082L1.283,392.651L1.224,392.22L1.167,391.789L1.112,391.357L1.057,390.924L1.004,390.491L0.953,390.058L0.902,389.624L0.853,389.19L0.806,388.756L0.759,388.321L0.714,387.886L0.671,387.45L0.628,387.014L0.588,386.578L0.548,386.141L0.51,385.704L0.473,385.266L0.438,384.828L0.403,384.39L0.371,383.951L0.339,383.512L0.309,383.072L0.281,382.632L0.253,382.192L0.228,381.752L0.203,381.311L0.18,380.869L0.158,380.428L0.138,379.986L0.119,379.543L0.101,379.1L0.085,378.657L0.071,378.214L0.057,377.77L0.045,377.326L0.035,376.881L0.025,376.436L0.018,375.991L0.011,375.546L0.006,375.1L0.003,374.653L0.001,374.207L0,373.76L0,0L373.76,0L374.207,0.001ZM43.561,43.561L43.561,373.725L43.562,374.069L43.563,374.377L43.566,374.685L43.569,374.993L43.574,375.3L43.579,375.608L43.585,375.914L43.593,376.221L43.601,376.527L43.61,376.833L43.62,377.138L43.631,377.444L43.643,377.748L43.657,378.053L43.671,378.357L43.685,378.661L43.701,378.964L43.718,379.268L43.736,379.571L43.755,379.873L43.774,380.175L43.795,380.478L43.816,380.779L43.839,381.08L43.862,381.381L43.887,381.682L43.912,381.982L43.938,382.282L43.965,382.582L43.993,382.881L44.022,383.18L44.052,383.479L44.083,383.777L44.115,384.075L44.147,384.373L44.181,384.67L44.215,384.967L44.251,385.264L44.287,385.561L44.324,385.857L44.362,386.152L44.402,386.448L44.441,386.743L44.482,387.038L44.524,387.332L44.567,387.626L44.61,387.92L44.655,388.214L44.7,388.506L44.746,388.799L44.793,389.092L44.841,389.384L44.89,389.676L44.94,389.967L44.99,390.258L45.042,390.549L45.094,390.84L45.148,391.129L45.202,391.419L45.257,391.709L45.313,391.998L45.37,392.287L45.427,392.575L45.486,392.863L45.545,393.151L45.606,393.439L45.667,393.725L45.729,394.012L45.792,394.299L45.855,394.585L45.92,394.871L45.986,395.156L46.052,395.441L46.119,395.726L46.187,396.01L46.256,396.294L46.326,396.578L46.396,396.861L46.468,397.144L46.54,397.427L46.613,397.709L46.687,397.991L46.762,398.273L46.838,398.554L46.914,398.835L46.992,399.116L47.07,399.395L47.149,399.675L47.229,399.955L47.31,400.234L47.391,400.512L47.474,400.791L47.557,401.069L47.641,401.347L47.726,401.624L47.812,401.901L47.899,402.178L47.986,402.454L48.074,402.73L48.163,403.005L48.253,403.281L48.344,403.556L48.435,403.83L48.528,404.103L48.621,404.377L48.715,404.651L48.81,404.923L48.905,405.196L49.002,405.469L49.099,405.74L49.197,406.012L49.296,406.283L49.395,406.553L49.496,406.824L49.597,407.094L49.699,407.364L49.802,407.632L49.906,407.901L50.01,408.17L50.116,408.438L50.222,408.705L50.329,408.972L50.436,409.24L50.545,409.506L50.654,409.772L50.764,410.038L50.875,410.303L50.987,410.568L51.099,410.833L51.212,411.096L51.326,411.36L51.441,411.623L51.557,411.886L51.673,412.149L51.79,412.412L51.908,412.673L52.027,412.934L52.146,413.195L52.267,413.456L52.387,413.715L52.509,413.975L52.632,414.234L52.755,414.494L52.879,414.751L53.004,415.009L53.13,415.267L53.256,415.525L53.383,415.781L53.511,416.037L53.64,416.293L53.77,416.549L53.9,416.804L54.031,417.058L54.162,417.313L54.295,417.566L54.428,417.819L54.562,418.072L54.697,418.325L54.833,418.577L54.969,418.829L55.105,419.079L55.243,419.33L55.382,419.581L55.521,419.83L55.661,420.079L55.802,420.329L55.943,420.577L56.085,420.825L56.228,421.072L56.371,421.319L56.516,421.566L56.661,421.812L56.807,422.058L56.954,422.303L57.101,422.548L57.249,422.792L57.397,423.036L57.547,423.28L57.697,423.522L57.848,423.765L58,424.007L58.152,424.248L58.305,424.489L58.459,424.73L58.613,424.969L58.768,425.209L58.925,425.449L59.081,425.687L59.239,425.926L59.397,426.163L59.555,426.4L59.714,426.637L59.875,426.873L60.036,427.109L60.198,427.345L60.36,427.579L60.522,427.813L60.686,428.047L60.85,428.28L61.016,428.513L61.181,428.745L61.347,428.976L61.514,429.207L61.683,429.439L61.851,429.669L62.02,429.898L62.189,430.127L62.36,430.356L62.531,430.584L62.703,430.811L62.876,431.039L63.049,431.265L63.223,431.491L63.397,431.717L63.573,431.942L63.748,432.166L63.925,432.39L64.103,432.614L64.28,432.836L64.458,433.058L64.638,433.28L64.818,433.502L64.998,433.722L65.179,433.942L65.361,434.161L65.544,434.381L65.726,434.599L65.91,434.817L66.095,435.035L66.279,435.251L66.466,435.468L66.652,435.683L66.838,435.898L67.026,436.113L67.215,436.327L67.403,436.54L67.592,436.753L67.783,436.966L67.974,437.178L68.165,437.388L68.357,437.6L68.55,437.809L68.743,438.019L68.937,438.228L69.131,438.436L69.326,438.643L69.522,438.851L69.719,439.058L69.916,439.264L70.112,439.468L70.311,439.674L70.51,439.878L70.709,440.081L70.91,440.285L71.11,440.487L71.311,440.688L71.513,440.89L71.715,441.09L71.919,441.291L72.122,441.49L72.326,441.688L72.531,441.887L72.737,442.085L72.943,442.282L73.148,442.477L73.356,442.673L73.564,442.869L73.772,443.063L73.981,443.257L74.191,443.451L74.401,443.643L74.611,443.835L74.822,444.026L75.034,444.217L75.247,444.408L75.459,444.597L75.673,444.786L75.887,444.974L76.102,445.162L76.317,445.349L76.532,445.534L76.748,445.72L76.966,445.906L77.183,446.09L77.4,446.273L77.62,446.457L77.839,446.639L78.058,446.821L78.278,447.002L78.499,447.183L78.72,447.362L78.942,447.542L79.164,447.72L79.386,447.898L79.61,448.075L79.834,448.252L80.058,448.427L80.283,448.603L80.509,448.777L80.735,448.951L80.962,449.125L81.189,449.297L81.416,449.469L81.644,449.64L81.873,449.811L82.101,449.98L82.331,450.149L82.563,450.318L82.793,450.486L83.023,450.652L83.256,450.819L83.488,450.985L83.72,451.15L83.953,451.314L84.187,451.477L84.421,451.64L84.656,451.803L84.891,451.964L85.127,452.125L85.364,452.286L85.599,452.444L85.837,452.604L86.074,452.761L86.312,452.918L86.552,453.076L86.791,453.232L87.029,453.386L87.27,453.541L87.511,453.695L87.751,453.848L87.994,454.001L88.235,454.152L88.478,454.303L88.721,454.453L88.963,454.602L89.207,454.751L89.452,454.899L89.697,455.046L89.942,455.193L90.188,455.339L90.435,455.484L90.68,455.628L90.927,455.772L91.176,455.915L91.423,456.057L91.672,456.199L91.921,456.339L92.169,456.479L92.42,456.618L92.67,456.757L92.92,456.894L93.172,457.032L93.423,457.168L93.675,457.303L93.928,457.438L94.181,457.572L94.433,457.705L94.687,457.838L94.942,457.97L95.196,458.1L95.451,458.23L95.707,458.36L95.963,458.489L96.218,458.616L96.477,458.744L96.734,458.871L96.989,458.995L97.248,459.121L97.508,459.245L97.765,459.368L98.024,459.49L98.284,459.612L98.544,459.733L98.806,459.854L99.067,459.974L99.328,460.092L99.588,460.209L99.85,460.326L100.114,460.443L100.377,460.559L100.64,460.674L100.903,460.787L101.168,460.901L101.433,461.014L101.698,461.125L101.962,461.236L102.228,461.346L102.494,461.455L102.759,461.563L103.027,461.671L103.295,461.779L103.563,461.884L103.831,461.99L104.099,462.094L104.367,462.198L104.637,462.301L104.907,462.403L105.176,462.504L105.446,462.604L105.717,462.704L105.988,462.803L106.259,462.901L106.532,462.998L106.804,463.095L107.076,463.19L107.349,463.285L107.623,463.379L107.897,463.473L108.169,463.564L108.444,463.656L108.72,463.747L108.995,463.837L109.27,463.926L109.546,464.014L109.823,464.102L110.098,464.188L110.376,464.274L110.653,464.359L110.93,464.443L111.209,464.526L111.488,464.609L111.767,464.69L112.044,464.771L112.324,464.851L112.604,464.93L112.885,465.008L113.166,465.086L113.446,465.162L113.727,465.238L114.009,465.313L114.291,465.387L114.573,465.46L114.856,465.532L115.14,465.604L115.422,465.674L115.706,465.744L115.989,465.813L116.273,465.881L116.56,465.948L116.845,466.015L117.13,466.08L117.414,466.144L117.701,466.208L117.988,466.271L118.274,466.333L118.561,466.394L118.849,466.455L119.137,466.514L119.424,466.573L119.713,466.63L120.002,466.687L120.291,466.743L120.581,466.798L120.871,466.853L121.16,466.906L121.45,466.958L121.741,467.009L122.033,467.06L122.324,467.11L122.616,467.159L122.908,467.207L123.201,467.254L123.494,467.3L123.786,467.345L124.08,467.39L124.374,467.433L124.667,467.476L124.963,467.518L125.257,467.559L125.552,467.598L125.848,467.638L126.143,467.676L126.438,467.713L126.736,467.749L127.033,467.785L127.33,467.819L127.627,467.853L127.925,467.885L128.222,467.917L128.52,467.948L128.82,467.978L129.119,468.007L129.419,468.035L129.717,468.062L130.018,468.088L130.319,468.113L130.618,468.138L130.92,468.161L131.221,468.184L131.523,468.205L131.825,468.226L132.126,468.245L132.429,468.264L132.732,468.282L133.036,468.299L133.339,468.315L133.643,468.329L133.947,468.343L134.252,468.357L134.557,468.369L134.861,468.38L135.167,468.39L135.474,468.399L135.78,468.407L136.084,468.415L136.393,468.421L136.7,468.426L137.006,468.431L137.315,468.434L137.624,468.437L137.932,468.438L138.274,468.439L373.726,468.439L374.068,468.438L374.376,468.437L374.685,468.434L374.994,468.431L375.3,468.426L375.607,468.421L375.916,468.415L376.22,468.407L376.526,468.399L376.833,468.39L377.139,468.38L377.443,468.369L377.748,468.357L378.053,468.343L378.357,468.329L378.661,468.315L378.964,468.299L379.268,468.282L379.572,468.264L379.874,468.245L380.175,468.226L380.477,468.205L380.779,468.184L381.079,468.161L381.381,468.138L381.681,468.113L381.982,468.088L382.282,468.062L382.581,468.035L382.882,468.007L383.18,467.978L383.48,467.948L383.778,467.917L384.075,467.885L384.373,467.853L384.67,467.819L384.967,467.785L385.264,467.749L385.562,467.713L385.857,467.676L386.152,467.638L386.448,467.598L386.743,467.559L387.037,467.518L387.333,467.476L387.626,467.433L387.92,467.39L388.214,467.345L388.506,467.3L388.799,467.254L389.092,467.207L389.384,467.159L389.676,467.11L389.967,467.06L390.259,467.009L390.551,466.958L390.84,466.906L391.128,466.853L391.418,466.798L391.709,466.743L391.998,466.687L392.287,466.63L392.576,466.573L392.863,466.514L393.151,466.455L393.439,466.394L393.726,466.333L394.013,466.271L394.298,466.208L394.585,466.145L394.871,466.08L395.155,466.015L395.44,465.948L395.726,465.881L396.011,465.813L396.294,465.744L396.578,465.674L396.86,465.604L397.144,465.532L397.427,465.46L397.709,465.387L397.992,465.312L398.273,465.238L398.554,465.162L398.834,465.086L399.115,465.008L399.396,464.93L399.676,464.851L399.956,464.771L400.233,464.69L400.511,464.609L400.791,464.526L401.07,464.443L401.347,464.359L401.624,464.274L401.902,464.188L402.177,464.102L402.454,464.014L402.73,463.926L403.004,463.837L403.281,463.747L403.556,463.656L403.831,463.564L404.103,463.473L404.377,463.379L404.652,463.285L404.923,463.19L405.196,463.095L405.469,462.998L405.74,462.901L406.012,462.803L406.284,462.704L406.554,462.604L406.824,462.504L407.094,462.403L407.364,462.301L407.633,462.198L407.901,462.094L408.169,461.99L408.437,461.885L408.704,461.779L408.972,461.671L409.241,461.563L409.506,461.455L409.773,461.346L410.038,461.236L410.302,461.125L410.567,461.013L410.833,460.901L411.097,460.787L411.36,460.674L411.623,460.559L411.886,460.444L412.15,460.326L412.412,460.209L412.672,460.092L412.932,459.974L413.195,459.854L413.456,459.733L413.716,459.612L413.976,459.49L414.235,459.368L414.493,459.245L414.751,459.121L415.01,458.996L415.266,458.871L415.524,458.744L415.782,458.616L416.036,458.489L416.293,458.36L416.55,458.23L416.804,458.1L417.058,457.969L417.313,457.837L417.566,457.705L417.819,457.572L418.072,457.438L418.325,457.303L418.577,457.167L418.828,457.031L419.079,456.895L419.329,456.757L419.581,456.618L419.831,456.478L420.079,456.339L420.328,456.199L420.577,456.057L420.825,455.915L421.072,455.772L421.319,455.628L421.566,455.484L421.812,455.339L422.058,455.193L422.304,455.046L422.548,454.899L422.792,454.751L423.036,454.602L423.28,454.453L423.522,454.303L423.764,454.152L424.007,454L424.249,453.848L424.489,453.695L424.73,453.541L424.97,453.387L425.209,453.232L425.448,453.076L425.688,452.919L425.926,452.761L426.163,452.603L426.4,452.445L426.636,452.286L426.873,452.125L427.109,451.964L427.344,451.803L427.58,451.64L427.813,451.477L428.047,451.314L428.28,451.149L428.512,450.985L428.744,450.819L428.976,450.653L429.207,450.486L429.438,450.318L429.67,450.148L429.899,449.98L430.126,449.811L430.355,449.64L430.584,449.469L430.811,449.297L431.038,449.124L431.266,448.951L431.491,448.777L431.717,448.602L431.942,448.427L432.165,448.252L432.39,448.075L432.614,447.897L432.836,447.72L433.058,447.542L433.281,447.362L433.501,447.183L433.722,447.002L433.942,446.821L434.161,446.64L434.381,446.457L434.6,446.273L434.817,446.09L435.034,445.906L435.251,445.721L435.469,445.534L435.683,445.349L435.898,445.162L436.114,444.973L436.327,444.786L436.54,444.597L436.753,444.408L436.966,444.217L437.179,444.026L437.388,443.835L437.599,443.643L437.809,443.451L438.019,443.257L438.228,443.063L438.435,442.87L438.644,442.673L438.852,442.477L439.058,442.281L439.263,442.085L439.468,441.888L439.674,441.688L439.878,441.49L440.081,441.291L440.285,441.09L440.486,440.89L440.689,440.689L440.89,440.486L441.09,440.285L441.291,440.081L441.49,439.878L441.688,439.674L441.888,439.468L442.085,439.263L442.281,439.058L442.477,438.852L442.673,438.644L442.87,438.435L443.063,438.228L443.257,438.019L443.451,437.809L443.643,437.599L443.835,437.388L444.026,437.179L444.217,436.966L444.408,436.753L444.597,436.54L444.786,436.327L444.973,436.114L445.162,435.898L445.349,435.683L445.534,435.469L445.721,435.251L445.906,435.034L446.09,434.817L446.273,434.6L446.457,434.381L446.64,434.161L446.821,433.942L447.002,433.722L447.183,433.501L447.362,433.281L447.542,433.058L447.72,432.836L447.897,432.614L448.075,432.39L448.252,432.165L448.427,431.942L448.602,431.717L448.777,431.491L448.951,431.266L449.124,431.038L449.297,430.811L449.469,430.584L449.64,430.355L449.811,430.126L449.98,429.899L450.148,429.67L450.318,429.438L450.486,429.207L450.653,428.976L450.819,428.744L450.985,428.512L451.149,428.28L451.314,428.047L451.477,427.813L451.64,427.58L451.803,427.344L451.964,427.109L452.125,426.873L452.286,426.636L452.445,426.4L452.603,426.163L452.761,425.926L452.919,425.688L453.076,425.448L453.232,425.209L453.387,424.97L453.541,424.73L453.695,424.489L453.848,424.249L454,424.007L454.152,423.764L454.303,423.522L454.453,423.28L454.602,423.036L454.751,422.792L454.899,422.548L455.046,422.304L455.193,422.058L455.339,421.812L455.484,421.566L455.628,421.319L455.772,421.072L455.915,420.825L456.057,420.577L456.199,420.328L456.339,420.079L456.478,419.831L456.618,419.581L456.757,419.329L456.895,419.079L457.031,418.828L457.167,418.577L457.303,418.325L457.438,418.072L457.572,417.819L457.705,417.566L457.837,417.313L457.969,417.058L458.1,416.804L458.23,416.55L458.36,416.293L458.489,416.036L458.616,415.782L458.744,415.524L458.871,415.266L458.996,415.01L459.121,414.751L459.245,414.493L459.368,414.235L459.49,413.976L459.612,413.716L459.733,413.456L459.854,413.195L459.974,412.932L460.092,412.672L460.209,412.412L460.326,412.15L460.444,411.886L460.559,411.623L460.674,411.36L460.787,411.097L460.901,410.833L461.013,410.567L461.125,410.302L461.236,410.038L461.346,409.773L461.455,409.506L461.563,409.241L461.671,408.972L461.779,408.704L461.885,408.437L461.99,408.169L462.094,407.901L462.198,407.633L462.301,407.364L462.403,407.094L462.504,406.824L462.604,406.554L462.704,406.284L462.803,406.012L462.901,405.74L462.998,405.469L463.095,405.196L463.19,404.923L463.285,404.652L463.379,404.377L463.473,404.103L463.564,403.831L463.656,403.556L463.747,403.281L463.837,403.004L463.926,402.73L464.014,402.454L464.102,402.177L464.188,401.902L464.274,401.624L464.359,401.347L464.443,401.07L464.526,400.791L464.609,400.511L464.69,400.233L464.771,399.956L464.851,399.676L464.93,399.396L465.008,399.115L465.086,398.834L465.162,398.554L465.238,398.273L465.312,397.992L465.387,397.709L465.46,397.427L465.532,397.144L465.604,396.86L465.674,396.578L465.744,396.294L465.813,396.011L465.881,395.726L465.948,395.44L466.015,395.155L466.08,394.871L466.145,394.585L466.208,394.298L466.271,394.013L466.333,393.726L466.394,393.439L466.455,393.151L466.514,392.863L466.573,392.576L466.63,392.287L466.687,391.998L466.743,391.709L466.798,391.418L466.853,391.128L466.906,390.84L466.958,390.551L467.009,390.259L467.06,389.967L467.11,389.676L467.159,389.384L467.207,389.092L467.254,388.799L467.3,388.506L467.345,388.214L467.39,387.92L467.433,387.626L467.476,387.333L467.518,387.037L467.559,386.743L467.598,386.448L467.638,386.152L467.676,385.857L467.713,385.562L467.749,385.264L467.785,384.967L467.819,384.67L467.853,384.373L467.885,384.075L467.917,383.778L467.948,383.48L467.978,383.18L468.007,382.882L468.035,382.581L468.062,382.282L468.088,381.982L468.113,381.681L468.138,381.381L468.161,381.079L468.184,380.779L468.205,380.477L468.226,380.175L468.245,379.874L468.264,379.572L468.282,379.268L468.299,378.964L468.315,378.661L468.329,378.357L468.343,378.053L468.357,377.748L468.369,377.443L468.38,377.139L468.39,376.833L468.399,376.526L468.407,376.22L468.415,375.916L468.421,375.607L468.426,375.3L468.431,374.994L468.434,374.685L468.437,374.376L468.438,374.068L468.439,373.726L468.439,138.274L468.438,137.932L468.437,137.624L468.434,137.315L468.431,137.006L468.426,136.7L468.421,136.393L468.415,136.084L468.407,135.78L468.399,135.474L468.39,135.167L468.38,134.861L468.369,134.557L468.357,134.252L468.343,133.947L468.329,133.643L468.315,133.339L468.299,133.036L468.282,132.732L468.264,132.429L468.245,132.126L468.226,131.825L468.205,131.523L468.184,131.221L468.161,130.92L468.138,130.618L468.113,130.319L468.088,130.018L468.062,129.717L468.035,129.419L468.007,129.119L467.978,128.82L467.948,128.52L467.917,128.222L467.885,127.925L467.853,127.627L467.819,127.33L467.785,127.033L467.749,126.736L467.713,126.438L467.676,126.143L467.638,125.848L467.598,125.552L467.559,125.257L467.518,124.963L467.476,124.667L467.433,124.374L467.39,124.08L467.345,123.786L467.3,123.494L467.254,123.201L467.207,122.908L467.159,122.616L467.11,122.324L467.06,122.033L467.009,121.741L466.958,121.45L466.906,121.16L466.853,120.871L466.798,120.581L466.743,120.291L466.687,120.002L466.63,119.713L466.573,119.424L466.514,119.137L466.455,118.849L466.394,118.561L466.333,118.274L466.271,117.988L466.208,117.701L466.144,117.414L466.08,117.13L466.015,116.845L465.948,116.56L465.881,116.273L465.813,115.989L465.744,115.706L465.674,115.422L465.604,115.14L465.532,114.856L465.46,114.573L465.387,114.291L465.313,114.009L465.238,113.727L465.162,113.446L465.086,113.166L465.008,112.885L464.93,112.604L464.851,112.324L464.771,112.044L464.69,111.767L464.609,111.488L464.526,111.209L464.443,110.93L464.359,110.653L464.274,110.376L464.188,110.098L464.102,109.823L464.014,109.546L463.926,109.27L463.837,108.995L463.747,108.72L463.656,108.444L463.564,108.169L463.473,107.897L463.379,107.623L463.285,107.349L463.19,107.076L463.095,106.804L462.998,106.532L462.901,106.259L462.803,105.988L462.704,105.717L462.604,105.446L462.504,105.176L462.403,104.907L462.301,104.637L462.198,104.367L462.094,104.099L461.99,103.831L461.884,103.563L461.779,103.295L461.671,103.027L461.563,102.759L461.455,102.494L461.346,102.228L461.236,101.962L461.125,101.698L461.014,101.433L460.901,101.168L460.787,100.903L460.674,100.64L460.559,100.377L460.443,100.114L460.326,99.85L460.209,99.588L460.092,99.328L459.974,99.067L459.854,98.806L459.733,98.544L459.612,98.284L459.49,98.024L459.368,97.765L459.245,97.508L459.121,97.248L458.995,96.989L458.871,96.734L458.744,96.477L458.616,96.218L458.489,95.963L458.36,95.707L458.23,95.451L458.1,95.196L457.97,94.942L457.838,94.687L457.705,94.433L457.572,94.181L457.438,93.928L457.303,93.675L457.168,93.423L457.032,93.172L456.894,92.92L456.757,92.67L456.618,92.42L456.479,92.169L456.339,91.921L456.199,91.672L456.057,91.423L455.915,91.176L455.772,90.927L455.628,90.68L455.484,90.435L455.339,90.188L455.193,89.942L455.046,89.697L454.899,89.452L454.751,89.207L454.602,88.963L454.453,88.721L454.303,88.478L454.152,88.235L454.001,87.994L453.848,87.751L453.695,87.511L453.541,87.27L453.386,87.029L453.232,86.791L453.076,86.552L452.918,86.312L452.761,86.074L452.604,85.837L452.444,85.599L452.286,85.364L452.125,85.127L451.964,84.891L451.803,84.656L451.64,84.421L451.477,84.187L451.314,83.953L451.15,83.72L450.985,83.488L450.819,83.256L450.652,83.023L450.486,82.793L450.318,82.563L450.149,82.331L449.98,82.101L449.811,81.873L449.64,81.644L449.469,81.416L449.297,81.189L449.125,80.962L448.951,80.735L448.777,80.509L448.603,80.283L448.427,80.058L448.252,79.834L448.075,79.61L447.898,79.386L447.72,79.164L447.542,78.942L447.362,78.72L447.183,78.499L447.002,78.278L446.821,78.058L446.639,77.839L446.457,77.62L446.273,77.4L446.09,77.183L445.906,76.966L445.72,76.748L445.534,76.532L445.349,76.317L445.162,76.102L444.974,75.887L444.786,75.673L444.597,75.459L444.408,75.247L444.217,75.034L444.026,74.822L443.835,74.611L443.643,74.401L443.451,74.191L443.257,73.981L443.063,73.772L442.869,73.564L442.673,73.356L442.477,73.148L442.282,72.943L442.085,72.737L441.887,72.531L441.688,72.326L441.49,72.122L441.291,71.919L441.09,71.715L440.89,71.513L440.688,71.311L440.487,71.11L440.285,70.91L440.081,70.709L439.878,70.51L439.674,70.311L439.468,70.112L439.264,69.916L439.058,69.719L438.851,69.522L438.643,69.326L438.436,69.131L438.228,68.937L438.019,68.743L437.809,68.55L437.6,68.357L437.388,68.165L437.178,67.974L436.966,67.783L436.753,67.592L436.54,67.403L436.327,67.215L436.113,67.026L435.898,66.838L435.683,66.652L435.468,66.466L435.251,66.279L435.035,66.095L434.817,65.91L434.599,65.726L434.381,65.544L434.161,65.361L433.942,65.179L433.722,64.998L433.502,64.818L433.28,64.638L433.058,64.458L432.836,64.28L432.614,64.103L432.39,63.925L432.166,63.748L431.942,63.573L431.717,63.397L431.491,63.223L431.265,63.049L431.039,62.876L430.811,62.703L430.584,62.531L430.356,62.36L430.127,62.189L429.898,62.02L429.669,61.851L429.439,61.683L429.207,61.514L428.976,61.347L428.745,61.181L428.513,61.016L428.28,60.85L428.047,60.686L427.813,60.522L427.579,60.36L427.345,60.198L427.109,60.036L426.873,59.875L426.637,59.714L426.4,59.555L426.163,59.397L425.926,59.239L425.687,59.081L425.449,58.925L425.209,58.768L424.969,58.613L424.73,58.459L424.489,58.305L424.248,58.152L424.007,58L423.765,57.848L423.522,57.697L423.28,57.547L423.036,57.397L422.792,57.249L422.548,57.101L422.303,56.954L422.058,56.807L421.812,56.661L421.566,56.516L421.319,56.371L421.072,56.228L420.825,56.085L420.577,55.943L420.329,55.802L420.079,55.661L419.83,55.521L419.581,55.382L419.33,55.243L419.079,55.105L418.829,54.969L418.577,54.833L418.325,54.697L418.072,54.562L417.819,54.428L417.566,54.295L417.313,54.162L417.058,54.031L416.804,53.9L416.549,53.77L416.293,53.64L416.037,53.511L415.781,53.383L415.525,53.256L415.267,53.13L415.009,53.004L414.751,52.879L414.494,52.755L414.234,52.632L413.975,52.509L413.715,52.387L413.456,52.267L413.195,52.146L412.934,52.027L412.673,51.908L412.412,51.79L412.149,51.673L411.886,51.557L411.623,51.441L411.36,51.326L411.096,51.212L410.833,51.099L410.568,50.987L410.303,50.875L410.038,50.764L409.772,50.654L409.506,50.545L409.24,50.436L408.972,50.329L408.705,50.222L408.438,50.116L408.17,50.01L407.901,49.906L407.632,49.802L407.364,49.699L407.094,49.597L406.824,49.496L406.553,49.395L406.283,49.296L406.012,49.197L405.74,49.099L405.469,49.002L405.196,48.905L404.923,48.81L404.651,48.715L404.377,48.621L404.103,48.528L403.83,48.435L403.556,48.344L403.281,48.253L403.005,48.163L402.73,48.074L402.454,47.986L402.178,47.899L401.901,47.812L401.624,47.726L401.347,47.641L401.069,47.557L400.791,47.474L400.512,47.391L400.234,47.31L399.955,47.229L399.675,47.149L399.395,47.07L399.116,46.992L398.835,46.914L398.554,46.838L398.273,46.762L397.991,46.687L397.709,46.613L397.427,46.54L397.144,46.468L396.861,46.396L396.578,46.326L396.294,46.256L396.01,46.187L395.726,46.119L395.441,46.052L395.156,45.986L394.871,45.92L394.585,45.855L394.299,45.792L394.012,45.729L393.725,45.667L393.439,45.606L393.151,45.545L392.863,45.486L392.575,45.427L392.287,45.37L391.998,45.313L391.709,45.257L391.419,45.202L391.129,45.148L390.84,45.094L390.549,45.042L390.258,44.99L389.967,44.94L389.676,44.89L389.384,44.841L389.092,44.793L388.799,44.746L388.506,44.7L388.214,44.655L387.92,44.61L387.626,44.567L387.332,44.524L387.038,44.482L386.743,44.441L386.448,44.402L386.152,44.362L385.857,44.324L385.561,44.287L385.264,44.251L384.967,44.215L384.67,44.181L384.373,44.147L384.075,44.115L383.777,44.083L383.479,44.052L383.18,44.022L382.881,43.993L382.582,43.965L382.282,43.938L381.982,43.912L381.682,43.887L381.381,43.862L381.08,43.839L380.779,43.816L380.478,43.795L380.175,43.774L379.873,43.755L379.571,43.736L379.268,43.718L378.964,43.701L378.661,43.685L378.357,43.671L378.053,43.657L377.748,43.643L377.444,43.631L377.138,43.62L376.833,43.61L376.527,43.601L376.221,43.593L375.914,43.585L375.608,43.579L375.3,43.574L374.993,43.569L374.685,43.566L374.377,43.563L374.069,43.562L373.725,43.561L43.561,43.561Z" style="fill:url(#_Radial1);"/>
    </g>
    <g transform="matrix(1.01983,-0.0846136,0.0846136,1.01983,-13.0705,11.6095)">
        <g transform="matrix(0.351598,0.936151,-0.936949,0.351897,392.647,-79.8075)">
            <path d="M192.775,68.184L321.085,361.375L64.465,361.375L192.775,68.184Z" style="fill:url(#_Linear2);"/>
        </g>
        <g transform="matrix(0.650576,0.759441,-0.760088,0.651131,322.942,-66.1994)">
            <path d="M192.775,68.184L321.085,361.375L64.465,361.375L192.775,68.184Z" style="fill:url(#_Linear3);"/>
        </g>
        <g transform="matrix(0.871086,0.491131,-0.49155,0.871829,262.124,-29.524)">
            <path d="M192.775,68.184L321.085,361.375L64.465,361.375L192.775,68.184Z" style="fill:url(#_Linear4);"/>
        </g>
    </g>
    <defs>
        <radialGradient id="_Radial1" cx="0" cy="0" r="1" gradientUnits="userSpaceOnUse" gradientTransform="matrix(512,0,0,512,0,256)"><stop offset="0" style="stop-color:rgb(188,57,8);stop-opacity:1"/><stop offset="1" style="stop-color:rgb(246,170,28);stop-opacity:1"/></radialGradient>
        <linearGradient id="_Linear2" x1="0" y1="0" x2="1" y2="0" gradientUnits="userSpaceOnUse" gradientTransform="matrix(256.62,0,0,293.191,64.4649,214.78)"><stop offset="0" style="stop-color:rgb(188,57,8);stop-opacity:1"/><stop offset="1" style="stop-color:rgb(246,170,28);stop-opacity:1"/></linearGradient>
        <linearGradient id="_Linear3" x1="0" y1="0" x2="1" y2="0" gradientUnits="userSpaceOnUse" gradientTransform="matrix(256.62,0,0,293.191,64.4649,214.78)"><stop offset="0" style="stop-color:rgb(188,57,8);stop-opacity:1"/><stop offset="1" style="stop-color:rgb(246,170,28);stop-opacity:1"/></linearGradient>
        <linearGradient id="_Linear4" x1="0" y1="0" x2="1" y2="0" gradientUnits="userSpaceOnUse" gradientTransform="matrix(256.62,0,0,293.191,64.4649,214.78)"><stop offset="0" style="stop-color:rgb(188,57,8);stop-opacity:1"/><stop offset="1" style="stop-color:rgb(246,170,28);stop-opacity:1"/></linearGradient>
    </defs>
</svg>
