<?xml version="1.0" encoding="UTF-8" standalone="no"?>
<!DOCTYPE svg PUBLIC "-//W3C//DTD SVG 1.1//EN" "http://www.w3.org/Graphics/SVG/1.1/DTD/svg11.dtd">
<svg width="100%" height="100%" viewBox="0 0 512 512" version="1.1" xmlns="http://www.w3.org/2000/svg" xmlns:xlink="http://www.w3.org/1999/xlink" xml:space="preserve" xmlns:serif="http://www.serif.com/" style="fill-rule:evenodd;clip-rule:evenodd;stroke-linejoin:round;stroke-miterlimit:1.41421;">
    <g transform="matrix(0.901332,0,0,0.901332,25.2591,25.2591)">
        <path d="M512,138.24C512,61.943 450.057,0 373.76,0L0,0L0,373.76C0,450.057 61.943,512 138.24,512L373.76,512C450.057,512 512,450.057 512,373.76L512,138.24Z" style="fill:rgb(235,235,235);fill-opacity:0;"/>
        <path d="M374.207,0.001L374.653,0.003L375.1,0.006L375.546,0.011L375.991,0.018L376.436,0.025L376.881,0.035L377.326,0.045L377.77,0.057L378.214,0.071L378.657,0.085L379.1,0.101L379.543,0.119L379.986,0.138L380.428,0.158L380.869,0.18L381.311,0.203L381.752,0.228L382.192,0.253L382.632,0.281L383.072,0.309L383.512,0.339L383.951,0.371L384.39,0.403L384.828,0.438L385.266,0.473L385.704,0.51L386.141,0.548L386.578,0.588L387.014,0.628L387.45,0.671L387.886,0.714L388.321,0.759L388.756,0.806L389.19,0.853L389.624,0.902L390.058,0.953L390.491,1.004L390.924,1.057L391.357,1.112L391.789,1.167L392.22,1.224L392.651,1.283L393.082,1.342L393.512,1.403L393.942,1.465L394.372,1.529L394.801,1.594L395.229,1.66L395.658,1.728L396.085,1.797L396.513,1.867L396.94,1.938L397.366,2.011L397.792,2.085L398.217,2.161L398.643,2.238L399.067,2.316L399.491,2.395L399.915,2.475L400.338,2.557L400.761,2.64L401.184,2.725L401.606,2.811L402.027,2.898L402.448,2.986L402.868,3.076L403.288,3.166L403.708,3.259L404.127,3.352L404.546,3.447L404.964,3.543L405.381,3.64L405.799,3.738L406.215,3.838L406.631,3.939L407.047,4.041L407.462,4.145L407.877,4.249L408.291,4.355L408.705,4.463L409.118,4.571L409.531,4.681L409.943,4.792L410.355,4.904L410.766,5.017L411.177,5.132L411.587,5.248L411.996,5.365L412.406,5.483L412.814,5.603L413.222,5.724L413.63,5.846L414.037,5.969L414.443,6.094L414.849,6.219L415.255,6.346L415.66,6.474L416.064,6.604L416.468,6.734L416.871,6.866L417.274,6.999L417.676,7.133L418.078,7.268L418.479,7.405L418.879,7.543L419.279,7.682L419.679,7.822L420.078,7.963L420.476,8.106L420.874,8.249L421.271,8.394L421.668,8.54L422.064,8.687L422.459,8.836L422.854,8.985L423.249,9.136L423.642,9.288L424.035,9.441L424.428,9.595L424.82,9.751L425.212,9.907L425.602,10.065L425.993,10.224L426.382,10.384L426.771,10.545L427.16,10.707L427.548,10.871L427.935,11.035L428.322,11.201L428.708,11.368L429.093,11.536L429.478,11.705L429.862,11.876L430.246,12.047L430.629,12.22L431.011,12.393L431.393,12.568L431.774,12.744L432.155,12.921L432.535,13.099L432.914,13.279L433.292,13.459L433.67,13.641L434.048,13.823L434.425,14.007L434.801,14.192L435.176,14.378L435.551,14.565L435.925,14.753L436.299,14.943L436.671,15.133L437.044,15.324L437.415,15.517L437.786,15.711L438.156,15.905L438.526,16.101L438.895,16.298L439.263,16.496L439.631,16.695L439.998,16.895L440.364,17.096L440.729,17.299L441.094,17.502L441.459,17.707L441.822,17.912L442.185,18.119L442.547,18.326L442.909,18.535L443.27,18.745L443.63,18.956L443.989,19.167L444.348,19.38L444.706,19.594L445.063,19.809L445.42,20.025L445.776,20.242L446.131,20.461L446.485,20.68L446.839,20.9L447.192,21.121L447.545,21.344L447.896,21.567L448.247,21.791L448.598,22.017L448.947,22.243L449.296,22.47L449.644,22.699L449.991,22.928L450.338,23.159L450.684,23.39L451.029,23.623L451.373,23.856L451.717,24.091L452.06,24.326L452.402,24.563L452.743,24.8L453.084,25.039L453.424,25.278L453.763,25.519L454.102,25.76L454.439,26.003L454.776,26.246L455.112,26.491L455.448,26.736L455.782,26.983L456.116,27.23L456.449,27.478L456.782,27.728L457.113,27.978L457.444,28.229L457.774,28.482L458.103,28.735L458.431,28.989L458.759,29.244L459.086,29.5L459.412,29.758L459.737,30.016L460.062,30.275L460.385,30.535L460.708,30.795L461.03,31.057L461.352,31.32L461.672,31.584L461.992,31.848L462.311,32.114L462.629,32.381L462.946,32.648L463.263,32.917L463.578,33.186L463.893,33.456L464.207,33.727L464.52,34L464.833,34.273L465.144,34.547L465.455,34.821L465.765,35.097L466.074,35.374L466.382,35.652L466.689,35.93L466.996,36.21L467.301,36.49L467.606,36.771L467.91,37.053L468.213,37.336L468.516,37.62L468.817,37.905L469.118,38.191L469.417,38.478L469.716,38.765L470.014,39.053L470.311,39.343L470.608,39.633L470.903,39.924L471.198,40.216L471.491,40.509L471.784,40.802L472.076,41.097L472.367,41.392L472.657,41.689L472.947,41.986L473.235,42.284L473.522,42.583L473.809,42.882L474.095,43.183L474.38,43.484L474.664,43.787L474.947,44.09L475.229,44.394L475.51,44.699L475.79,45.004L476.07,45.311L476.348,45.618L476.626,45.926L476.903,46.235L477.179,46.545L477.453,46.856L477.727,47.167L478,47.48L478.273,47.793L478.544,48.107L478.814,48.422L479.083,48.737L479.352,49.054L479.619,49.371L479.886,49.689L480.152,50.008L480.416,50.328L480.68,50.648L480.943,50.97L481.205,51.292L481.465,51.615L481.725,51.938L481.984,52.263L482.242,52.588L482.5,52.914L482.756,53.241L483.011,53.569L483.265,53.897L483.518,54.226L483.771,54.556L484.022,54.887L484.272,55.218L484.522,55.551L484.77,55.884L485.017,56.218L485.264,56.552L485.509,56.888L485.754,57.224L485.997,57.561L486.24,57.898L486.481,58.237L486.722,58.576L486.961,58.916L487.2,59.257L487.437,59.598L487.674,59.94L487.909,60.283L488.144,60.627L488.377,60.971L488.61,61.316L488.841,61.662L489.072,62.009L489.301,62.356L489.53,62.704L489.757,63.053L489.983,63.402L490.209,63.753L490.433,64.104L490.656,64.455L490.879,64.808L491.1,65.161L491.32,65.515L491.539,65.869L491.758,66.224L491.975,66.58L492.191,66.937L492.406,67.294L492.62,67.652L492.833,68.011L493.044,68.37L493.255,68.73L493.465,69.091L493.674,69.453L493.881,69.815L494.088,70.178L494.293,70.541L494.498,70.906L494.701,71.271L494.904,71.636L495.105,72.002L495.305,72.369L495.504,72.737L495.702,73.105L495.899,73.474L496.095,73.844L496.289,74.214L496.483,74.585L496.676,74.956L496.867,75.329L497.057,75.701L497.247,76.075L497.435,76.449L497.622,76.824L497.808,77.199L497.993,77.575L498.177,77.952L498.359,78.33L498.541,78.708L498.721,79.086L498.901,79.465L499.079,79.845L499.256,80.226L499.432,80.607L499.607,80.989L499.78,81.371L499.953,81.754L500.124,82.138L500.295,82.522L500.464,82.907L500.632,83.292L500.799,83.678L500.965,84.065L501.129,84.452L501.293,84.84L501.455,85.229L501.616,85.618L501.776,86.007L501.935,86.398L502.093,86.788L502.249,87.18L502.405,87.572L502.559,87.965L502.712,88.358L502.864,88.751L503.015,89.146L503.164,89.541L503.313,89.936L503.46,90.332L503.606,90.729L503.751,91.126L503.894,91.524L504.037,91.922L504.178,92.321L504.318,92.721L504.457,93.121L504.595,93.521L504.732,93.922L504.867,94.324L505.001,94.726L505.134,95.129L505.266,95.532L505.396,95.936L505.526,96.34L505.654,96.745L505.781,97.151L505.906,97.557L506.031,97.963L506.154,98.37L506.276,98.778L506.397,99.186L506.517,99.594L506.635,100.004L506.752,100.413L506.868,100.823L506.983,101.234L507.096,101.645L507.208,102.057L507.319,102.469L507.429,102.882L507.537,103.295L507.645,103.709L507.751,104.123L507.855,104.538L507.959,104.953L508.061,105.369L508.162,105.785L508.262,106.201L508.36,106.619L508.457,107.036L508.553,107.454L508.648,107.873L508.741,108.292L508.834,108.712L508.924,109.132L509.014,109.552L509.102,109.973L509.189,110.394L509.275,110.816L509.36,111.239L509.443,111.662L509.525,112.085L509.605,112.509L509.684,112.933L509.762,113.357L509.839,113.783L509.915,114.208L509.989,114.634L510.062,115.06L510.133,115.487L510.203,115.915L510.272,116.342L510.34,116.771L510.406,117.199L510.471,117.628L510.535,118.058L510.597,118.488L510.658,118.918L510.717,119.349L510.776,119.78L510.833,120.211L510.888,120.643L510.943,121.076L510.996,121.509L511.047,121.942L511.098,122.376L511.147,122.81L511.194,123.244L511.241,123.679L511.286,124.114L511.329,124.55L511.372,124.986L511.412,125.422L511.452,125.859L511.49,126.296L511.527,126.734L511.562,127.172L511.597,127.61L511.629,128.049L511.661,128.488L511.691,128.928L511.719,129.368L511.747,129.808L511.772,130.248L511.797,130.689L511.82,131.131L511.842,131.572L511.862,132.014L511.881,132.457L511.899,132.9L511.915,133.343L511.929,133.786L511.943,134.23L511.955,134.674L511.965,135.119L511.975,135.564L511.982,136.009L511.989,136.454L511.994,136.9L511.997,137.347L511.999,137.793L512,138.24L512,373.76L511.999,374.207L511.997,374.653L511.994,375.1L511.989,375.546L511.982,375.991L511.975,376.436L511.965,376.881L511.955,377.326L511.943,377.77L511.929,378.214L511.915,378.657L511.899,379.1L511.881,379.543L511.862,379.986L511.842,380.428L511.82,380.869L511.797,381.311L511.772,381.752L511.747,382.192L511.719,382.632L511.691,383.072L511.661,383.512L511.629,383.951L511.597,384.39L511.562,384.828L511.527,385.266L511.49,385.704L511.452,386.141L511.412,386.578L511.372,387.014L511.329,387.45L511.286,387.886L511.241,388.321L511.194,388.756L511.147,389.19L511.098,389.624L511.047,390.058L510.996,390.491L510.943,390.924L510.888,391.357L510.833,391.789L510.776,392.22L510.717,392.651L510.658,393.082L510.597,393.512L510.535,393.942L510.471,394.372L510.406,394.801L510.34,395.229L510.272,395.658L510.203,396.085L510.133,396.513L510.062,396.94L509.989,397.366L509.915,397.792L509.839,398.217L509.762,398.643L509.684,399.067L509.605,399.491L509.525,399.915L509.443,400.338L509.36,400.761L509.275,401.184L509.189,401.606L509.102,402.027L509.014,402.448L508.924,402.868L508.834,403.288L508.741,403.708L508.648,404.127L508.553,404.546L508.457,404.964L508.36,405.381L508.262,405.799L508.162,406.215L508.061,406.631L507.959,407.047L507.855,407.462L507.751,407.877L507.645,408.291L507.537,408.705L507.429,409.118L507.319,409.531L507.208,409.943L507.096,410.355L506.983,410.766L506.868,411.177L506.752,411.587L506.635,411.996L506.517,412.406L506.397,412.814L506.276,413.222L506.154,413.63L506.031,414.037L505.906,414.443L505.781,414.849L505.654,415.255L505.526,415.66L505.396,416.064L505.266,416.468L505.134,416.871L505.001,417.274L504.867,417.676L504.732,418.078L504.595,418.479L504.457,418.879L504.318,419.279L504.178,419.679L504.037,420.078L503.894,420.476L503.751,420.874L503.606,421.271L503.46,421.668L503.313,422.064L503.164,422.459L503.015,422.854L502.864,423.249L502.712,423.642L502.559,424.035L502.405,424.428L502.249,424.82L502.093,425.212L501.935,425.602L501.776,425.993L501.616,426.382L501.455,426.771L501.293,427.16L501.129,427.548L500.965,427.935L500.799,428.322L500.632,428.708L500.464,429.093L500.295,429.478L500.124,429.862L499.953,430.246L499.78,430.629L499.607,431.011L499.432,431.393L499.256,431.774L499.079,432.155L498.901,432.535L498.721,432.914L498.541,433.292L498.359,433.67L498.177,434.048L497.993,434.425L497.808,434.801L497.622,435.176L497.435,435.551L497.247,435.925L497.057,436.299L496.867,436.671L496.676,437.044L496.483,437.415L496.289,437.786L496.095,438.156L495.899,438.526L495.702,438.895L495.504,439.263L495.305,439.631L495.105,439.998L494.904,440.364L494.701,440.729L494.498,441.094L494.293,441.459L494.088,441.822L493.881,442.185L493.674,442.547L493.465,442.909L493.255,443.27L493.044,443.63L492.833,443.989L492.62,444.348L492.406,444.706L492.191,445.063L491.975,445.42L491.758,445.776L491.539,446.131L491.32,446.485L491.1,446.839L490.879,447.192L490.656,447.545L490.433,447.896L490.209,448.247L489.983,448.598L489.757,448.947L489.53,449.296L489.301,449.644L489.072,449.991L488.841,450.338L488.61,450.684L488.377,451.029L488.144,451.373L487.909,451.717L487.674,452.06L487.437,452.402L487.2,452.743L486.961,453.084L486.722,453.424L486.481,453.763L486.24,454.102L485.997,454.439L485.754,454.776L485.509,455.112L485.264,455.448L485.017,455.782L484.77,456.116L484.522,456.449L484.272,456.782L484.022,457.113L483.771,457.444L483.518,457.774L483.265,458.103L483.011,458.431L482.756,458.759L482.5,459.086L482.242,459.412L481.984,459.737L481.725,460.062L481.465,460.385L481.205,460.708L480.943,461.03L480.68,461.352L480.416,461.672L480.152,461.992L479.886,462.311L479.619,462.629L479.352,462.946L479.083,463.263L478.814,463.578L478.544,463.893L478.273,464.207L478,464.52L477.727,464.833L477.453,465.144L477.179,465.455L476.903,465.765L476.626,466.074L476.348,466.382L476.07,466.689L475.79,466.996L475.51,467.301L475.229,467.606L474.947,467.91L474.664,468.213L474.38,468.516L474.095,468.817L473.809,469.118L473.522,469.417L473.235,469.716L472.947,470.014L472.657,470.311L472.367,470.608L472.076,470.903L471.784,471.198L471.491,471.491L471.198,471.784L470.903,472.076L470.608,472.367L470.311,472.657L470.014,472.947L469.716,473.235L469.417,473.522L469.118,473.809L468.817,474.095L468.516,474.38L468.213,474.664L467.91,474.947L467.606,475.229L467.301,475.51L466.996,475.79L466.689,476.07L466.382,476.348L466.074,476.626L465.765,476.903L465.455,477.179L465.144,477.453L464.833,477.727L464.52,478L464.207,478.273L463.893,478.544L463.578,478.814L463.263,479.083L462.946,479.352L462.629,479.619L462.311,479.886L461.992,480.152L461.672,480.416L461.352,480.68L461.03,480.943L460.708,481.205L460.385,481.465L460.062,481.725L459.737,481.984L459.412,482.242L459.086,482.5L458.759,482.756L458.431,483.011L458.103,483.265L457.774,483.518L457.444,483.771L457.113,484.022L456.782,484.272L456.449,484.522L456.116,484.77L455.782,485.017L455.448,485.264L455.112,485.509L454.776,485.754L454.439,485.997L454.102,486.24L453.763,486.481L453.424,486.722L453.084,486.961L452.743,487.2L452.402,487.437L452.06,487.674L451.717,487.909L451.373,488.144L451.029,488.377L450.684,488.61L450.338,488.841L449.991,489.072L449.644,489.301L449.296,489.53L448.947,489.757L448.598,489.983L448.247,490.209L447.896,490.433L447.545,490.656L447.192,490.879L446.839,491.1L446.485,491.32L446.131,491.539L445.776,491.758L445.42,491.975L445.063,492.191L444.706,492.406L444.348,492.62L443.989,492.833L443.63,493.044L443.27,493.255L442.909,493.465L442.547,493.674L442.185,493.881L441.822,494.088L441.459,494.293L441.094,494.498L440.729,494.701L440.364,494.904L439.998,495.105L439.631,495.305L439.263,495.504L438.895,495.702L438.526,495.899L438.156,496.095L437.786,496.289L437.415,496.483L437.044,496.676L436.671,496.867L436.299,497.057L435.925,497.247L435.551,497.435L435.176,497.622L434.801,497.808L434.425,497.993L434.048,498.177L433.67,498.359L433.292,498.541L432.914,498.721L432.535,498.901L432.155,499.079L431.774,499.256L431.393,499.432L431.011,499.607L430.629,499.78L430.246,499.953L429.862,500.124L429.478,500.295L429.093,500.464L428.708,500.632L428.322,500.799L427.935,500.965L427.548,501.129L427.16,501.293L426.771,501.455L426.382,501.616L425.993,501.776L425.602,501.935L425.212,502.093L424.82,502.249L424.428,502.405L424.035,502.559L423.642,502.712L423.249,502.864L422.854,503.015L422.459,503.164L422.064,503.313L421.668,503.46L421.271,503.606L420.874,503.751L420.476,503.894L420.078,504.037L419.679,504.178L419.279,504.318L418.879,504.457L418.479,504.595L418.078,504.732L417.676,504.867L417.274,505.001L416.871,505.134L416.468,505.266L416.064,505.396L415.66,505.526L415.255,505.654L414.849,505.781L414.443,505.906L414.037,506.031L413.63,506.154L413.222,506.276L412.814,506.397L412.406,506.517L411.996,506.635L411.587,506.752L411.177,506.868L410.766,506.983L410.355,507.096L409.943,507.208L409.531,507.319L409.118,507.429L408.705,507.537L408.291,507.645L407.877,507.751L407.462,507.855L407.047,507.959L406.631,508.061L406.215,508.162L405.799,508.262L405.381,508.36L404.964,508.457L404.546,508.553L404.127,508.648L403.708,508.741L403.288,508.834L402.868,508.924L402.448,509.014L402.027,509.102L401.606,509.189L401.184,509.275L400.761,509.36L400.338,509.443L399.915,509.525L399.491,509.605L399.067,509.684L398.643,509.762L398.217,509.839L397.792,509.915L397.366,509.989L396.94,510.062L396.513,510.133L396.085,510.203L395.658,510.272L395.229,510.34L394.801,510.406L394.372,510.471L393.942,510.535L393.512,510.597L393.082,510.658L392.651,510.717L392.22,510.776L391.789,510.833L391.357,510.888L390.924,510.943L390.491,510.996L390.058,511.047L389.624,511.098L389.19,511.147L388.756,511.194L388.321,511.241L387.886,511.286L387.45,511.329L387.014,511.372L386.578,511.412L386.141,511.452L385.704,511.49L385.266,511.527L384.828,511.562L384.39,511.597L383.951,511.629L383.512,511.661L383.072,511.691L382.632,511.719L382.192,511.747L381.752,511.772L381.311,511.797L380.869,511.82L380.428,511.842L379.986,511.862L379.543,511.881L379.1,511.899L378.657,511.915L378.214,511.929L377.77,511.943L377.326,511.955L376.881,511.965L376.436,511.975L375.991,511.982L375.546,511.989L375.1,511.994L374.653,511.997L374.207,511.999L373.76,512L138.24,512L137.793,511.999L137.347,511.997L136.9,511.994L136.454,511.989L136.009,511.982L135.564,511.975L135.119,511.965L134.674,511.955L134.23,511.943L133.786,511.929L133.343,511.915L132.9,511.899L132.457,511.881L132.014,511.862L131.572,511.842L131.131,511.82L130.689,511.797L130.248,511.772L129.808,511.747L129.368,511.719L128.928,511.691L128.488,511.661L128.049,511.629L127.61,511.597L127.172,511.562L126.734,511.527L126.296,511.49L125.859,511.452L125.422,511.412L124.986,511.372L124.55,511.329L124.114,511.286L123.679,511.241L123.244,511.194L122.81,511.147L122.376,511.098L121.942,511.047L121.509,510.996L121.076,510.943L120.643,510.888L120.211,510.833L119.78,510.776L119.349,510.717L118.918,510.658L118.488,510.597L118.058,510.535L117.628,510.471L117.199,510.406L116.771,510.34L116.342,510.272L115.915,510.203L115.487,510.133L115.06,510.062L114.634,509.989L114.208,509.915L113.783,509.839L113.357,509.762L112.933,509.684L112.509,509.605L112.085,509.525L111.662,509.443L111.239,509.36L110.816,509.275L110.394,509.189L109.973,509.102L109.552,509.014L109.132,508.924L108.712,508.834L108.292,508.741L107.873,508.648L107.454,508.553L107.036,508.457L106.619,508.36L106.201,508.262L105.785,508.162L105.369,508.061L104.953,507.959L104.538,507.855L104.123,507.751L103.709,507.645L103.295,507.537L102.882,507.429L102.469,507.319L102.057,507.208L101.645,507.096L101.234,506.983L100.823,506.868L100.413,506.752L100.004,506.635L99.594,506.517L99.186,506.397L98.778,506.276L98.37,506.154L97.963,506.031L97.557,505.906L97.151,505.781L96.745,505.654L96.34,505.526L95.936,505.396L95.532,505.266L95.129,505.134L94.726,505.001L94.324,504.867L93.922,504.732L93.521,504.595L93.121,504.457L92.721,504.318L92.321,504.178L91.922,504.037L91.524,503.894L91.126,503.751L90.729,503.606L90.332,503.46L89.936,503.313L89.541,503.164L89.146,503.015L88.751,502.864L88.358,502.712L87.965,502.559L87.572,502.405L87.18,502.249L86.788,502.093L86.398,501.935L86.007,501.776L85.618,501.616L85.229,501.455L84.84,501.293L84.452,501.129L84.065,500.965L83.678,500.799L83.292,500.632L82.907,500.464L82.522,500.295L82.138,500.124L81.754,499.953L81.371,499.78L80.989,499.607L80.607,499.432L80.226,499.256L79.845,499.079L79.465,498.901L79.086,498.721L78.708,498.541L78.33,498.359L77.952,498.177L77.575,497.993L77.199,497.808L76.824,497.622L76.449,497.435L76.075,497.247L75.701,497.057L75.329,496.867L74.956,496.676L74.585,496.483L74.214,496.289L73.844,496.095L73.474,495.899L73.105,495.702L72.737,495.504L72.369,495.305L72.002,495.105L71.636,494.904L71.271,494.701L70.906,494.498L70.541,494.293L70.178,494.088L69.815,493.881L69.453,493.674L69.091,493.465L68.73,493.255L68.37,493.044L68.011,492.833L67.652,492.62L67.294,492.406L66.937,492.191L66.58,491.975L66.224,491.758L65.869,491.539L65.515,491.32L65.161,491.1L64.808,490.879L64.455,490.656L64.104,490.433L63.753,490.209L63.402,489.983L63.053,489.757L62.704,489.53L62.356,489.301L62.009,489.072L61.662,488.841L61.316,488.61L60.971,488.377L60.627,488.144L60.283,487.909L59.94,487.674L59.598,487.437L59.257,487.2L58.916,486.961L58.576,486.722L58.237,486.481L57.898,486.24L57.561,485.997L57.224,485.754L56.888,485.509L56.552,485.264L56.218,485.017L55.884,484.77L55.551,484.522L55.218,484.272L54.887,484.022L54.556,483.771L54.226,483.518L53.897,483.265L53.569,483.011L53.241,482.756L52.914,482.5L52.588,482.242L52.263,481.984L51.938,481.725L51.615,481.465L51.292,481.205L50.97,480.943L50.648,480.68L50.328,480.416L50.008,480.152L49.689,479.886L49.371,479.619L49.054,479.352L48.737,479.083L48.422,478.814L48.107,478.544L47.793,478.273L47.48,478L47.167,477.727L46.856,477.453L46.545,477.179L46.235,476.903L45.926,476.626L45.618,476.348L45.311,476.07L45.004,475.79L44.699,475.51L44.394,475.229L44.09,474.947L43.787,474.664L43.484,474.38L43.183,474.095L42.882,473.809L42.583,473.522L42.284,473.235L41.986,472.947L41.689,472.657L41.392,472.367L41.097,472.076L40.802,471.784L40.509,471.491L40.216,471.198L39.924,470.903L39.633,470.608L39.343,470.311L39.053,470.014L38.765,469.716L38.478,469.417L38.191,469.118L37.905,468.817L37.62,468.516L37.336,468.213L37.053,467.91L36.771,467.606L36.49,467.301L36.21,466.996L35.93,466.689L35.652,466.382L35.374,466.074L35.097,465.765L34.821,465.455L34.547,465.144L34.273,464.833L34,464.52L33.727,464.207L33.456,463.893L33.186,463.578L32.917,463.263L32.648,462.946L32.381,462.629L32.114,462.311L31.848,461.992L31.584,461.672L31.32,461.352L31.057,461.03L30.795,460.708L30.535,460.385L30.275,460.062L30.016,459.737L29.758,459.412L29.5,459.086L29.244,458.759L28.989,458.431L28.735,458.103L28.482,457.774L28.229,457.444L27.978,457.113L27.728,456.782L27.478,456.449L27.23,456.116L26.983,455.782L26.736,455.448L26.491,455.112L26.246,454.776L26.003,454.439L25.76,454.102L25.519,453.763L25.278,453.424L25.039,453.084L24.8,452.743L24.563,452.402L24.326,452.06L24.091,451.717L23.856,451.373L23.623,451.029L23.39,450.684L23.159,450.338L22.928,449.991L22.699,449.644L22.47,449.296L22.243,448.947L22.017,448.598L21.791,448.247L21.567,447.896L21.344,447.545L21.121,447.192L20.9,446.839L20.68,446.485L20.461,446.131L20.242,445.776L20.025,445.42L19.809,445.063L19.594,444.706L19.38,444.348L19.167,443.989L18.956,443.63L18.745,443.27L18.535,442.909L18.326,442.547L18.119,442.185L17.912,441.822L17.707,441.459L17.502,441.094L17.299,440.729L17.096,440.364L16.895,439.998L16.695,439.631L16.496,439.263L16.298,438.895L16.101,438.526L15.905,438.156L15.711,437.786L15.517,437.415L15.324,437.044L15.133,436.671L14.943,436.299L14.753,435.925L14.565,435.551L14.378,435.176L14.192,434.801L14.007,434.425L13.823,434.048L13.641,433.67L13.459,433.292L13.279,432.914L13.099,432.535L12.921,432.155L12.744,431.774L12.568,431.393L12.393,431.011L12.22,430.629L12.047,430.246L11.876,429.862L11.705,429.478L11.536,429.093L11.368,428.708L11.201,428.322L11.035,427.935L10.871,427.548L10.707,427.16L10.545,426.771L10.384,426.382L10.224,425.993L10.065,425.602L9.907,425.212L9.751,424.82L9.595,424.428L9.441,424.035L9.288,423.642L9.136,423.249L8.985,422.854L8.836,422.459L8.687,422.064L8.54,421.668L8.394,421.271L8.249,420.874L8.106,420.476L7.963,420.078L7.822,419.679L7.682,419.279L7.543,418.879L7.405,418.479L7.268,418.078L7.133,417.676L6.999,417.274L6.866,416.871L6.734,416.468L6.604,416.064L6.474,415.66L6.346,415.255L6.219,414.849L6.094,414.443L5.969,414.037L5.846,413.63L5.724,413.222L5.603,412.814L5.483,412.406L5.365,411.996L5.248,411.587L5.132,411.177L5.017,410.766L4.904,410.355L4.792,409.943L4.681,409.531L4.571,409.118L4.463,408.705L4.355,408.291L4.249,407.877L4.145,407.462L4.041,407.047L3.939,406.631L3.838,406.215L3.738,405.799L3.64,405.381L3.543,404.964L3.447,404.546L3.352,404.127L3.259,403.708L3.166,403.288L3.076,402.868L2.986,402.448L2.898,402.027L2.811,401.606L2.725,401.184L2.64,400.761L2.557,400.338L2.475,399.915L2.395,399.491L2.316,399.067L2.238,398.643L2.161,398.217L2.085,397.792L2.011,397.366L1.938,396.94L1.867,396.513L1.797,396.085L1.728,395.658L1.66,395.229L1.594,394.801L1.529,394.372L1.465,393.942L1.403,393.512L1.342,393.082L1.283,392.651L1.224,392.22L1.167,391.789L1.112,391.357L1.057,390.924L1.004,390.491L0.953,390.058L0.902,389.624L0.853,389.19L0.806,388.756L0.759,388.321L0.714,387.886L0.671,387.45L0.628,387.014L0.588,386.578L0.548,386.141L0.51,385.704L0.473,385.266L0.438,384.828L0.403,384.39L0.371,383.951L0.339,383.512L0.309,383.072L0.281,382.632L0.253,382.192L0.228,381.752L0.203,381.311L0.18,380.869L0.158,380.428L0.138,379.986L0.119,379.543L0.101,379.1L0.085,378.657L0.071,378.214L0.057,377.77L0.045,377.326L0.035,376.881L0.025,376.436L0.018,375.991L0.011,375.546L0.006,375.1L0.003,374.653L0.001,374.207L0,373.76L0,0L373.76,0L374.207,0.001ZM41.605,41.605L41.605,373.727L41.606,374.075L41.607,374.39L41.61,374.704L41.613,375.018L41.618,375.332L41.623,375.645L41.63,375.958L41.637,376.27L41.645,376.583L41.655,376.895L41.665,377.207L41.677,377.518L41.689,377.829L41.702,378.14L41.716,378.45L41.732,378.76L41.748,379.07L41.765,379.379L41.783,379.688L41.802,379.997L41.822,380.306L41.843,380.614L41.865,380.921L41.888,381.229L41.912,381.536L41.937,381.843L41.963,382.149L41.99,382.455L42.017,382.761L42.046,383.067L42.075,383.372L42.106,383.677L42.137,383.981L42.17,384.286L42.203,384.589L42.237,384.893L42.273,385.196L42.309,385.499L42.346,385.802L42.384,386.104L42.423,386.406L42.462,386.707L42.503,387.008L42.545,387.309L42.588,387.61L42.631,387.91L42.675,388.21L42.721,388.509L42.767,388.809L42.814,389.107L42.862,389.406L42.911,389.704L42.961,390.002L43.012,390.299L43.064,390.597L43.116,390.894L43.17,391.19L43.224,391.486L43.279,391.782L43.336,392.078L43.393,392.373L43.451,392.667L43.51,392.962L43.569,393.256L43.63,393.55L43.692,393.843L43.754,394.136L43.817,394.429L43.882,394.721L43.947,395.013L44.013,395.305L44.079,395.597L44.147,395.887L44.216,396.178L44.285,396.469L44.356,396.758L44.427,397.048L44.499,397.337L44.572,397.626L44.646,397.915L44.72,398.203L44.796,398.491L44.872,398.778L44.95,399.065L45.028,399.352L45.107,399.638L45.187,399.924L45.268,400.21L45.349,400.496L45.432,400.781L45.515,401.065L45.599,401.349L45.684,401.633L45.77,401.917L45.856,402.2L45.944,402.483L46.033,402.765L46.122,403.047L46.212,403.329L46.303,403.61L46.394,403.891L46.487,404.171L46.581,404.452L46.675,404.731L46.77,405.011L46.866,405.29L46.963,405.568L47.06,405.847L47.159,406.124L47.258,406.402L47.358,406.679L47.459,406.956L47.561,407.232L47.663,407.508L47.767,407.784L47.871,408.059L47.976,408.334L48.082,408.609L48.188,408.882L48.296,409.156L48.404,409.429L48.513,409.702L48.623,409.975L48.734,410.247L48.846,410.518L48.958,410.789L49.071,411.06L49.185,411.331L49.3,411.6L49.415,411.87L49.532,412.139L49.649,412.408L49.767,412.676L49.886,412.945L50.006,413.212L50.126,413.479L50.247,413.746L50.369,414.012L50.492,414.278L50.615,414.544L50.739,414.808L50.864,415.073L50.991,415.338L51.117,415.601L51.245,415.864L51.373,416.128L51.502,416.39L51.631,416.651L51.762,416.913L51.894,417.175L52.026,417.435L52.159,417.696L52.293,417.956L52.427,418.215L52.562,418.474L52.698,418.733L52.835,418.991L52.972,419.248L53.111,419.506L53.25,419.763L53.39,420.019L53.53,420.274L53.672,420.53L53.814,420.785L53.956,421.039L54.1,421.293L54.244,421.547L54.39,421.801L54.535,422.053L54.682,422.305L54.83,422.557L54.978,422.808L55.126,423.058L55.276,423.309L55.426,423.559L55.577,423.808L55.729,424.057L55.882,424.306L56.035,424.553L56.189,424.801L56.344,425.048L56.499,425.295L56.655,425.541L56.812,425.786L56.97,426.031L57.128,426.276L57.288,426.52L57.447,426.763L57.607,427.005L57.769,427.249L57.931,427.491L58.093,427.731L58.257,427.973L58.422,428.214L58.586,428.454L58.752,428.694L58.918,428.933L59.085,429.171L59.253,429.409L59.421,429.647L59.59,429.883L59.76,430.12L59.93,430.355L60.102,430.592L60.274,430.827L60.446,431.06L60.62,431.295L60.794,431.528L60.968,431.76L61.144,431.993L61.32,432.224L61.496,432.456L61.674,432.686L61.852,432.917L62.031,433.146L62.21,433.375L62.39,433.603L62.572,433.832L62.753,434.059L62.934,434.285L63.117,434.511L63.302,434.738L63.485,434.963L63.67,435.187L63.856,435.412L64.042,435.635L64.229,435.859L64.417,436.081L64.604,436.302L64.793,436.523L64.982,436.744L65.173,436.964L65.364,437.184L65.555,437.402L65.747,437.621L65.94,437.839L66.133,438.056L66.328,438.273L66.522,438.489L66.717,438.704L66.913,438.92L67.11,439.134L67.307,439.347L67.505,439.561L67.704,439.774L67.902,439.985L68.102,440.196L68.303,440.407L68.503,440.617L68.706,440.828L68.908,441.036L69.111,441.245L69.314,441.453L69.518,441.659L69.723,441.866L69.928,442.072L70.133,442.277L70.34,442.482L70.548,442.687L70.756,442.89L70.964,443.093L71.172,443.294L71.382,443.496L71.593,443.698L71.803,443.898L72.014,444.097L72.226,444.296L72.44,444.496L72.653,444.694L72.866,444.89L73.08,445.086L73.295,445.282L73.511,445.478L73.727,445.673L73.944,445.867L74.16,446.059L74.378,446.252L74.598,446.446L74.816,446.636L75.035,446.827L75.256,447.017L75.477,447.207L75.698,447.395L75.92,447.584L76.142,447.771L76.365,447.958L76.588,448.144L76.812,448.329L77.037,448.515L77.262,448.699L77.488,448.882L77.715,449.066L77.941,449.247L78.168,449.428L78.396,449.609L78.625,449.79L78.855,449.97L79.084,450.148L79.313,450.326L79.544,450.503L79.775,450.68L80.007,450.856L80.24,451.032L80.472,451.206L80.705,451.38L80.939,451.553L81.174,451.726L81.409,451.899L81.644,452.069L81.88,452.24L82.117,452.41L82.353,452.579L82.591,452.747L82.83,452.915L83.068,453.082L83.306,453.248L83.546,453.413L83.786,453.579L84.027,453.743L84.267,453.906L84.509,454.068L84.752,454.231L84.994,454.392L85.237,454.553L85.48,454.712L85.724,454.871L85.969,455.03L86.214,455.188L86.46,455.345L86.706,455.501L86.951,455.656L87.198,455.811L87.447,455.966L87.695,456.119L87.943,456.271L88.192,456.423L88.44,456.573L88.69,456.724L88.942,456.874L89.192,457.023L89.443,457.17L89.695,457.318L89.948,457.465L90.2,457.61L90.452,457.755L90.707,457.9L90.961,458.044L91.214,458.186L91.47,458.328L91.725,458.47L91.982,458.611L92.237,458.75L92.494,458.889L92.752,459.028L93.01,459.165L93.267,459.302L93.525,459.438L93.785,459.573L94.044,459.707L94.304,459.841L94.564,459.974L94.825,460.106L95.087,460.238L95.349,460.369L95.61,460.498L95.871,460.627L96.135,460.755L96.399,460.883L96.663,461.01L96.927,461.135L97.191,461.26L97.456,461.385L97.722,461.508L97.989,461.631L98.254,461.753L98.52,461.874L98.788,461.995L99.056,462.114L99.324,462.233L99.592,462.351L99.86,462.468L100.13,462.584L100.4,462.7L100.669,462.815L100.939,462.929L101.211,463.042L101.483,463.155L101.753,463.266L102.025,463.377L102.298,463.487L102.572,463.596L102.844,463.704L103.118,463.811L103.391,463.918L103.666,464.024L103.941,464.129L104.216,464.233L104.492,464.337L104.768,464.439L105.043,464.541L105.321,464.642L105.598,464.742L105.876,464.841L106.154,464.94L106.431,465.037L106.71,465.134L106.99,465.23L107.269,465.325L107.548,465.419L107.829,465.513L108.11,465.606L108.39,465.697L108.671,465.788L108.953,465.878L109.235,465.967L109.517,466.056L109.8,466.144L110.083,466.23L110.367,466.316L110.651,466.401L110.935,466.485L111.221,466.569L111.503,466.651L111.79,466.732L112.076,466.814L112.361,466.893L112.647,466.972L112.936,467.051L113.222,467.128L113.508,467.204L113.798,467.28L114.086,467.354L114.374,467.428L114.663,467.501L114.95,467.573L115.242,467.644L115.532,467.715L115.821,467.784L116.113,467.853L116.404,467.921L116.694,467.987L116.987,468.054L117.278,468.118L117.571,468.183L117.864,468.246L118.156,468.308L118.45,468.37L118.745,468.431L119.039,468.491L119.333,468.549L119.628,468.607L119.922,468.664L120.218,468.72L120.514,468.776L120.811,468.83L121.107,468.884L121.403,468.936L121.7,468.988L121.998,469.039L122.296,469.089L122.593,469.138L122.892,469.186L123.192,469.233L123.491,469.279L123.79,469.324L124.091,469.369L124.391,469.413L124.691,469.455L124.992,469.497L125.292,469.537L125.594,469.577L125.897,469.616L126.198,469.654L126.5,469.691L126.804,469.727L127.108,469.763L127.41,469.797L127.715,469.83L128.018,469.863L128.322,469.894L128.628,469.925L128.933,469.954L129.239,469.983L129.545,470.01L129.85,470.037L130.156,470.063L130.465,470.088L130.772,470.112L131.077,470.134L131.386,470.157L131.694,470.178L132.003,470.198L132.312,470.217L132.621,470.235L132.929,470.252L133.24,470.268L133.55,470.284L133.86,470.298L134.173,470.311L134.482,470.324L134.793,470.335L135.105,470.345L135.418,470.355L135.73,470.363L136.042,470.37L136.355,470.377L136.668,470.382L136.982,470.387L137.297,470.39L137.61,470.393L137.924,470.394L138.273,470.395L373.727,470.395L374.076,470.394L374.39,470.393L374.703,470.39L375.018,470.387L375.332,470.382L375.645,470.377L375.958,470.37L376.27,470.363L376.582,470.355L376.895,470.345L377.208,470.335L377.518,470.324L377.827,470.311L378.14,470.298L378.45,470.284L378.76,470.268L379.071,470.252L379.379,470.235L379.688,470.217L379.997,470.198L380.306,470.178L380.614,470.157L380.923,470.134L381.228,470.112L381.535,470.088L381.844,470.063L382.15,470.037L382.455,470.01L382.761,469.983L383.067,469.954L383.372,469.925L383.678,469.894L383.982,469.863L384.285,469.83L384.59,469.797L384.892,469.763L385.195,469.727L385.5,469.691L385.802,469.654L386.103,469.616L386.406,469.577L386.708,469.537L387.008,469.497L387.31,469.455L387.609,469.413L387.909,469.369L388.21,469.325L388.509,469.279L388.808,469.233L389.108,469.186L389.407,469.138L389.704,469.089L390.002,469.039L390.3,468.988L390.597,468.936L390.893,468.884L391.189,468.83L391.486,468.776L391.782,468.72L392.079,468.664L392.372,468.607L392.667,468.549L392.961,468.491L393.255,468.431L393.55,468.37L393.844,468.308L394.136,468.246L394.429,468.183L394.722,468.118L395.012,468.054L395.306,467.987L395.597,467.92L395.887,467.853L396.178,467.784L396.468,467.715L396.758,467.644L397.049,467.573L397.337,467.501L397.626,467.428L397.914,467.354L398.202,467.28L398.492,467.204L398.778,467.128L399.064,467.051L399.353,466.972L399.639,466.893L399.923,466.814L400.21,466.732L400.497,466.651L400.78,466.569L401.065,466.485L401.349,466.401L401.633,466.316L401.917,466.23L402.199,466.144L402.483,466.056L402.766,465.967L403.047,465.878L403.329,465.788L403.61,465.697L403.89,465.606L404.171,465.513L404.452,465.419L404.731,465.325L405.01,465.23L405.29,465.134L405.569,465.037L405.847,464.94L406.124,464.841L406.402,464.742L406.679,464.642L406.957,464.541L407.232,464.439L407.507,464.337L407.784,464.233L408.059,464.129L408.334,464.024L408.609,463.918L408.882,463.811L409.156,463.704L409.428,463.596L409.702,463.487L409.975,463.376L410.247,463.266L410.518,463.155L410.788,463.042L411.061,462.929L411.331,462.815L411.6,462.7L411.87,462.584L412.14,462.468L412.408,462.351L412.676,462.233L412.945,462.114L413.212,461.995L413.479,461.874L413.746,461.753L414.012,461.631L414.278,461.508L414.544,461.385L414.808,461.261L415.073,461.135L415.338,461.009L415.601,460.883L415.865,460.755L416.129,460.626L416.39,460.498L416.65,460.369L416.912,460.238L417.176,460.106L417.436,459.974L417.696,459.841L417.957,459.707L418.215,459.573L418.474,459.438L418.733,459.301L418.99,459.165L419.247,459.028L419.506,458.889L419.763,458.75L420.018,458.611L420.274,458.47L420.531,458.328L420.786,458.186L421.039,458.044L421.293,457.9L421.548,457.755L421.801,457.61L422.052,457.465L422.305,457.318L422.558,457.17L422.808,457.023L423.058,456.874L423.31,456.724L423.56,456.573L423.808,456.423L424.057,456.271L424.305,456.119L424.553,455.966L424.802,455.81L425.049,455.656L425.294,455.501L425.54,455.345L425.786,455.188L426.03,455.031L426.276,454.871L426.521,454.712L426.763,454.553L427.005,454.393L427.249,454.231L427.492,454.068L427.732,453.907L427.973,453.743L428.214,453.578L428.455,453.413L428.694,453.248L428.932,453.082L429.17,452.915L429.409,452.747L429.647,452.578L429.883,452.41L430.12,452.24L430.356,452.069L430.591,451.898L430.826,451.726L431.061,451.553L431.295,451.38L431.527,451.207L431.759,451.033L431.993,450.856L432.225,450.68L432.456,450.503L432.687,450.326L432.916,450.148L433.145,449.97L433.375,449.79L433.604,449.609L433.833,449.428L434.059,449.247L434.284,449.066L434.512,448.882L434.738,448.698L434.963,448.515L435.188,448.33L435.412,448.144L435.634,447.958L435.858,447.771L436.081,447.583L436.302,447.396L436.523,447.207L436.743,447.018L436.965,446.827L437.184,446.636L437.402,446.446L437.622,446.252L437.84,446.059L438.056,445.867L438.273,445.672L438.489,445.478L438.704,445.283L438.92,445.086L439.134,444.89L439.347,444.694L439.561,444.495L439.774,444.296L439.985,444.098L440.196,443.898L440.407,443.698L440.618,443.496L440.828,443.294L441.036,443.092L441.244,442.89L441.452,442.687L441.659,442.482L441.867,442.277L442.072,442.072L442.277,441.867L442.482,441.659L442.687,441.452L442.89,441.244L443.092,441.036L443.294,440.828L443.496,440.618L443.698,440.407L443.898,440.196L444.098,439.985L444.296,439.774L444.495,439.561L444.694,439.347L444.89,439.134L445.086,438.92L445.283,438.704L445.478,438.489L445.672,438.273L445.867,438.056L446.059,437.84L446.252,437.622L446.446,437.402L446.636,437.184L446.827,436.965L447.018,436.743L447.207,436.523L447.396,436.302L447.583,436.081L447.771,435.858L447.958,435.634L448.144,435.412L448.33,435.188L448.515,434.963L448.698,434.738L448.882,434.512L449.066,434.284L449.247,434.059L449.428,433.833L449.609,433.604L449.79,433.375L449.97,433.145L450.148,432.916L450.326,432.687L450.503,432.456L450.68,432.225L450.856,431.993L451.033,431.759L451.207,431.527L451.38,431.295L451.553,431.061L451.726,430.826L451.898,430.591L452.069,430.356L452.24,430.12L452.41,429.883L452.578,429.647L452.747,429.409L452.915,429.17L453.082,428.932L453.248,428.694L453.413,428.455L453.578,428.214L453.743,427.973L453.907,427.732L454.068,427.492L454.231,427.249L454.393,427.005L454.553,426.763L454.712,426.521L454.871,426.276L455.031,426.03L455.188,425.786L455.345,425.54L455.501,425.294L455.656,425.049L455.81,424.802L455.966,424.553L456.119,424.305L456.271,424.057L456.423,423.808L456.573,423.56L456.724,423.31L456.874,423.058L457.023,422.808L457.17,422.558L457.318,422.305L457.465,422.052L457.61,421.801L457.755,421.548L457.9,421.293L458.044,421.039L458.186,420.786L458.328,420.531L458.47,420.274L458.611,420.018L458.75,419.763L458.889,419.506L459.028,419.247L459.165,418.99L459.301,418.733L459.438,418.474L459.573,418.215L459.707,417.957L459.841,417.696L459.974,417.436L460.106,417.176L460.238,416.912L460.369,416.65L460.498,416.39L460.626,416.129L460.755,415.865L460.883,415.601L461.009,415.338L461.135,415.073L461.261,414.808L461.385,414.544L461.508,414.278L461.631,414.012L461.753,413.746L461.874,413.479L461.995,413.212L462.114,412.945L462.233,412.676L462.351,412.408L462.468,412.14L462.584,411.87L462.7,411.6L462.815,411.331L462.929,411.061L463.042,410.788L463.155,410.518L463.266,410.247L463.376,409.975L463.487,409.702L463.596,409.428L463.704,409.156L463.811,408.882L463.918,408.609L464.024,408.334L464.129,408.059L464.233,407.784L464.337,407.507L464.439,407.232L464.541,406.957L464.642,406.679L464.742,406.402L464.841,406.124L464.94,405.847L465.037,405.569L465.134,405.29L465.23,405.01L465.325,404.731L465.419,404.452L465.513,404.171L465.606,403.89L465.697,403.61L465.788,403.329L465.878,403.047L465.967,402.766L466.056,402.483L466.144,402.199L466.23,401.917L466.316,401.633L466.401,401.349L466.485,401.065L466.569,400.78L466.651,400.497L466.732,400.21L466.814,399.923L466.893,399.639L466.972,399.353L467.051,399.064L467.128,398.778L467.204,398.492L467.28,398.202L467.354,397.914L467.428,397.626L467.501,397.337L467.573,397.049L467.644,396.758L467.715,396.468L467.784,396.178L467.853,395.887L467.92,395.597L467.987,395.306L468.054,395.012L468.118,394.722L468.183,394.429L468.246,394.136L468.308,393.844L468.37,393.55L468.431,393.255L468.491,392.961L468.549,392.667L468.607,392.372L468.664,392.079L468.72,391.782L468.776,391.486L468.83,391.189L468.884,390.893L468.936,390.597L468.988,390.3L469.039,390.002L469.089,389.704L469.138,389.407L469.186,389.108L469.233,388.808L469.279,388.509L469.325,388.21L469.369,387.909L469.413,387.609L469.455,387.31L469.497,387.008L469.537,386.708L469.577,386.406L469.616,386.103L469.654,385.802L469.691,385.5L469.727,385.195L469.763,384.892L469.797,384.59L469.83,384.285L469.863,383.982L469.894,383.678L469.925,383.372L469.954,383.067L469.983,382.761L470.01,382.455L470.037,382.15L470.063,381.844L470.088,381.535L470.112,381.228L470.134,380.923L470.157,380.614L470.178,380.306L470.198,379.997L470.217,379.688L470.235,379.379L470.252,379.071L470.268,378.76L470.284,378.45L470.298,378.14L470.311,377.827L470.324,377.518L470.335,377.208L470.345,376.895L470.355,376.582L470.363,376.27L470.37,375.958L470.377,375.645L470.382,375.332L470.387,375.018L470.39,374.703L470.393,374.39L470.394,374.076L470.395,373.727L470.395,138.273L470.394,137.924L470.393,137.61L470.39,137.297L470.387,136.982L470.382,136.668L470.377,136.355L470.37,136.042L470.363,135.73L470.355,135.418L470.345,135.105L470.335,134.793L470.324,134.482L470.311,134.173L470.298,133.86L470.284,133.55L470.268,133.24L470.252,132.929L470.235,132.621L470.217,132.312L470.198,132.003L470.178,131.694L470.157,131.386L470.134,131.077L470.112,130.772L470.088,130.465L470.063,130.156L470.037,129.85L470.01,129.545L469.983,129.239L469.954,128.933L469.925,128.628L469.894,128.322L469.863,128.018L469.83,127.715L469.797,127.41L469.763,127.108L469.727,126.804L469.691,126.5L469.654,126.198L469.616,125.897L469.577,125.594L469.537,125.292L469.497,124.992L469.455,124.691L469.413,124.391L469.369,124.091L469.324,123.79L469.279,123.491L469.233,123.192L469.186,122.892L469.138,122.593L469.089,122.296L469.039,121.998L468.988,121.7L468.936,121.403L468.884,121.107L468.83,120.811L468.776,120.514L468.72,120.218L468.664,119.922L468.607,119.628L468.549,119.333L468.491,119.039L468.431,118.745L468.37,118.45L468.308,118.156L468.246,117.864L468.183,117.571L468.118,117.278L468.054,116.987L467.987,116.694L467.921,116.404L467.853,116.113L467.784,115.821L467.715,115.532L467.644,115.242L467.573,114.95L467.501,114.663L467.428,114.374L467.354,114.086L467.28,113.798L467.204,113.508L467.128,113.222L467.051,112.936L466.972,112.647L466.893,112.361L466.814,112.076L466.732,111.79L466.651,111.503L466.569,111.221L466.485,110.935L466.401,110.651L466.316,110.367L466.23,110.083L466.144,109.8L466.056,109.517L465.967,109.235L465.878,108.953L465.788,108.671L465.697,108.39L465.606,108.11L465.513,107.829L465.419,107.548L465.325,107.269L465.23,106.99L465.134,106.71L465.037,106.431L464.94,106.154L464.841,105.876L464.742,105.598L464.642,105.321L464.541,105.043L464.439,104.768L464.337,104.492L464.233,104.216L464.129,103.941L464.024,103.666L463.918,103.391L463.811,103.118L463.704,102.844L463.596,102.572L463.487,102.298L463.377,102.025L463.266,101.753L463.155,101.483L463.042,101.211L462.929,100.939L462.815,100.669L462.7,100.4L462.584,100.13L462.468,99.86L462.351,99.592L462.233,99.324L462.114,99.056L461.995,98.788L461.874,98.52L461.753,98.254L461.631,97.989L461.508,97.722L461.385,97.456L461.26,97.191L461.135,96.927L461.01,96.663L460.883,96.399L460.755,96.135L460.627,95.871L460.498,95.61L460.369,95.349L460.238,95.087L460.106,94.825L459.974,94.564L459.841,94.304L459.707,94.044L459.573,93.785L459.438,93.525L459.302,93.267L459.165,93.01L459.028,92.752L458.889,92.494L458.75,92.237L458.611,91.982L458.47,91.725L458.328,91.47L458.186,91.214L458.044,90.961L457.9,90.707L457.755,90.452L457.61,90.2L457.465,89.948L457.318,89.695L457.17,89.443L457.023,89.192L456.874,88.942L456.724,88.69L456.573,88.44L456.423,88.192L456.271,87.943L456.119,87.695L455.966,87.447L455.811,87.198L455.656,86.951L455.501,86.706L455.345,86.46L455.188,86.214L455.03,85.969L454.871,85.724L454.712,85.48L454.553,85.237L454.392,84.994L454.231,84.752L454.068,84.509L453.906,84.267L453.743,84.027L453.579,83.786L453.413,83.546L453.248,83.306L453.082,83.068L452.915,82.83L452.747,82.591L452.579,82.353L452.41,82.117L452.24,81.88L452.069,81.644L451.899,81.409L451.726,81.174L451.553,80.939L451.38,80.705L451.206,80.472L451.032,80.24L450.856,80.007L450.68,79.775L450.503,79.544L450.326,79.313L450.148,79.084L449.97,78.855L449.79,78.625L449.609,78.396L449.428,78.168L449.247,77.941L449.066,77.715L448.882,77.488L448.699,77.262L448.515,77.037L448.329,76.812L448.144,76.588L447.958,76.365L447.771,76.142L447.584,75.92L447.395,75.698L447.207,75.477L447.017,75.256L446.827,75.035L446.636,74.816L446.446,74.598L446.252,74.378L446.059,74.16L445.867,73.944L445.673,73.727L445.478,73.511L445.282,73.295L445.086,73.08L444.89,72.866L444.694,72.653L444.496,72.44L444.296,72.226L444.097,72.014L443.898,71.803L443.698,71.593L443.496,71.382L443.294,71.172L443.093,70.964L442.89,70.756L442.687,70.548L442.482,70.34L442.277,70.133L442.072,69.928L441.866,69.723L441.659,69.518L441.453,69.314L441.245,69.111L441.036,68.908L440.828,68.706L440.617,68.503L440.407,68.303L440.196,68.102L439.985,67.902L439.774,67.704L439.561,67.505L439.347,67.307L439.134,67.11L438.92,66.913L438.704,66.717L438.489,66.522L438.273,66.328L438.056,66.133L437.839,65.94L437.621,65.747L437.402,65.555L437.184,65.364L436.964,65.173L436.744,64.982L436.523,64.793L436.302,64.604L436.081,64.417L435.859,64.229L435.635,64.042L435.412,63.856L435.187,63.67L434.963,63.485L434.738,63.302L434.511,63.117L434.285,62.934L434.059,62.753L433.832,62.572L433.603,62.39L433.375,62.21L433.146,62.031L432.917,61.852L432.686,61.674L432.456,61.496L432.224,61.32L431.993,61.144L431.76,60.968L431.528,60.794L431.295,60.62L431.06,60.446L430.827,60.274L430.592,60.102L430.355,59.93L430.12,59.76L429.883,59.59L429.647,59.421L429.409,59.253L429.171,59.085L428.933,58.918L428.694,58.752L428.454,58.586L428.214,58.422L427.973,58.257L427.731,58.093L427.491,57.931L427.249,57.769L427.005,57.607L426.763,57.447L426.52,57.288L426.276,57.128L426.031,56.97L425.786,56.812L425.541,56.655L425.295,56.499L425.048,56.344L424.801,56.189L424.553,56.035L424.306,55.882L424.057,55.729L423.808,55.577L423.559,55.426L423.309,55.276L423.058,55.126L422.808,54.978L422.557,54.83L422.305,54.682L422.053,54.535L421.801,54.39L421.547,54.244L421.293,54.1L421.039,53.956L420.785,53.814L420.53,53.672L420.274,53.53L420.019,53.39L419.763,53.25L419.506,53.111L419.248,52.972L418.991,52.835L418.733,52.698L418.474,52.562L418.215,52.427L417.956,52.293L417.696,52.159L417.435,52.026L417.175,51.894L416.913,51.762L416.651,51.631L416.39,51.502L416.128,51.373L415.864,51.245L415.601,51.117L415.338,50.991L415.073,50.864L414.808,50.739L414.544,50.615L414.278,50.492L414.012,50.369L413.746,50.247L413.479,50.126L413.212,50.006L412.945,49.886L412.676,49.767L412.408,49.649L412.139,49.532L411.87,49.415L411.6,49.3L411.331,49.185L411.06,49.071L410.789,48.958L410.518,48.846L410.247,48.734L409.975,48.623L409.702,48.513L409.429,48.404L409.156,48.296L408.882,48.188L408.609,48.082L408.334,47.976L408.059,47.871L407.784,47.767L407.508,47.663L407.232,47.561L406.956,47.459L406.679,47.358L406.402,47.258L406.124,47.159L405.847,47.06L405.568,46.963L405.29,46.866L405.011,46.77L404.731,46.675L404.452,46.581L404.171,46.487L403.891,46.394L403.61,46.303L403.329,46.212L403.047,46.122L402.765,46.033L402.483,45.944L402.2,45.856L401.917,45.77L401.633,45.684L401.349,45.599L401.065,45.515L400.781,45.432L400.496,45.349L400.21,45.268L399.924,45.187L399.638,45.107L399.352,45.028L399.065,44.95L398.778,44.872L398.491,44.796L398.203,44.72L397.915,44.646L397.626,44.572L397.337,44.499L397.048,44.427L396.758,44.356L396.469,44.285L396.178,44.216L395.887,44.147L395.597,44.079L395.305,44.013L395.013,43.947L394.721,43.882L394.429,43.817L394.136,43.754L393.843,43.692L393.55,43.63L393.256,43.569L392.962,43.51L392.667,43.451L392.373,43.393L392.078,43.336L391.782,43.279L391.486,43.224L391.19,43.17L390.894,43.116L390.597,43.064L390.299,43.012L390.002,42.961L389.704,42.911L389.406,42.862L389.107,42.814L388.809,42.767L388.509,42.721L388.21,42.675L387.91,42.631L387.61,42.588L387.309,42.545L387.008,42.503L386.707,42.462L386.406,42.423L386.104,42.384L385.802,42.346L385.499,42.309L385.196,42.273L384.893,42.237L384.589,42.203L384.286,42.17L383.981,42.137L383.677,42.106L383.372,42.075L383.067,42.046L382.761,42.017L382.455,41.99L382.149,41.963L381.843,41.937L381.536,41.912L381.229,41.888L380.921,41.865L380.614,41.843L380.306,41.822L379.997,41.802L379.688,41.783L379.379,41.765L379.07,41.748L378.76,41.732L378.45,41.716L378.14,41.702L377.829,41.689L377.518,41.677L377.207,41.665L376.895,41.655L376.583,41.645L376.27,41.637L375.958,41.63L375.645,41.623L375.332,41.618L375.018,41.613L374.704,41.61L374.39,41.607L374.075,41.606L373.727,41.605L41.605,41.605Z" style="fill:url(#_Radial1);"/>
    </g>
    <g transform="matrix(0.287945,0.762446,-0.763096,0.288191,362.452,-27.5104)">
        <path d="M213.209,114.877L321.085,361.375L64.465,361.375L192.775,68.184L200.602,86.068C193.982,87.147 188.463,92.297 187.233,99.269C185.674,108.105 191.588,116.544 200.431,118.102C205.13,118.93 209.716,117.65 213.209,114.877Z" style="fill:url(#_Linear2);"/>
    </g>
    <g transform="matrix(0.531352,0.617982,-0.618509,0.531805,305.662,-16.3162)">
        <path d="M191.164,119.897C192.821,119.877 194.467,119.597 196.041,119.072L198.732,117.972C201.324,116.618 203.578,114.517 205.157,111.785C207.189,108.268 207.755,104.304 206.98,100.642L321.085,361.375L64.465,361.375L175.379,107.935C176.471,111.94 179.072,115.51 182.93,117.736C185.012,118.937 187.25,119.625 189.507,119.83L191.164,119.897Z" style="fill:url(#_Linear3);"/>
    </g>
    <g transform="matrix(0.531352,0.617982,-0.618509,0.531805,305.662,-16.3162)">
        <path d="M203.964,93.752C202.72,92.117 201.115,90.682 199.201,89.577C198.381,89.104 197.536,88.711 196.676,88.396L194.055,87.692L191.558,87.419C188.774,87.33 186.009,87.963 183.552,89.259L192.775,68.184L203.964,93.752Z" style="fill:url(#_Linear4);"/>
    </g>
    <g transform="matrix(0.71067,0.39898,-0.39932,0.711276,256.149,13.6648)">
        <path d="M181.33,117.005C184.228,116.619 187.066,115.415 189.485,113.387C196.364,107.62 197.263,97.357 191.49,90.483C190.882,89.758 190.223,89.1 189.522,88.511L187.3,86.953C186.577,86.523 185.826,86.154 185.047,85.843L192.775,68.184L321.085,361.375L64.465,361.375L172.025,115.598C174.03,116.547 176.212,117.06 178.425,117.119L181.33,117.005Z" style="fill:url(#_Linear5);"/>
    </g>
    <defs>
        <radialGradient id="_Radial1" cx="0" cy="0" r="1" gradientUnits="userSpaceOnUse" gradientTransform="matrix(512,0,0,512,0,256)"><stop offset="0" style="stop-color:rgb(188,57,8);stop-opacity:1"/><stop offset="1" style="stop-color:rgb(246,170,28);stop-opacity:1"/></radialGradient>
        <linearGradient id="_Linear2" x1="0" y1="0" x2="1" y2="0" gradientUnits="userSpaceOnUse" gradientTransform="matrix(256.62,0,0,293.191,64.4649,214.78)"><stop offset="0" style="stop-color:rgb(188,57,8);stop-opacity:1"/><stop offset="1" style="stop-color:rgb(246,170,28);stop-opacity:1"/></linearGradient>
        <linearGradient id="_Linear3" x1="0" y1="0" x2="1" y2="0" gradientUnits="userSpaceOnUse" gradientTransform="matrix(256.62,0,0,293.191,64.4649,214.78)"><stop offset="0" style="stop-color:rgb(188,57,8);stop-opacity:1"/><stop offset="1" style="stop-color:rgb(246,170,28);stop-opacity:1"/></linearGradient>
        <linearGradient id="_Linear4" x1="0" y1="0" x2="1" y2="0" gradientUnits="userSpaceOnUse" gradientTransform="matrix(256.62,0,0,293.191,64.4649,214.78)"><stop offset="0" style="stop-color:rgb(188,57,8);stop-opacity:1"/><stop offset="1" style="stop-color:rgb(246,170,28);stop-opacity:1"/></linearGradient>
        <linearGradient id="_Linear5" x1="0" y1="0" x2="1" y2="0" gradientUnits="userSpaceOnUse" gradientTransform="matrix(256.62,0,0,293.191,64.4649,214.78)"><stop offset="0" style="stop-color:rgb(188,57,8);stop-opacity:1"/><stop offset="1" style="stop-color:rgb(246,170,28);stop-opacity:1"/></linearGradient>
    </defs>
</svg>
